<?xml version="1.0" encoding="utf-8"?>
<svg version="1.1" xmlns:xlink="http://www.w3.org/1999/xlink" width="29px" height="29px" xmlns="http://www.w3.org/2000/svg">
  <g transform="matrix(1 0 0 1 -20 -19 )">
    <path d="M 5.27272727272727 21.0909090909091  L 7.90909090909091 21.0909090909091  L 7.90909090909091 23.7272727272727  L 5.27272727272727 23.7272727272727  L 5.27272727272727 21.0909090909091  Z M 5.27272727272727 5.27272727272727  L 7.90909090909091 5.27272727272727  L 7.90909090909091 7.90909090909091  L 5.27272727272727 7.90909090909091  L 5.27272727272727 5.27272727272727  Z M 21.0909090909091 5.27272727272727  L 23.7272727272727 5.27272727272727  L 23.7272727272727 7.90909090909091  L 21.0909090909091 7.90909090909091  L 21.0909090909091 5.27272727272727  Z M 2.63636363636364 18.4545454545455  L 2.63636363636364 26.3430397727273  L 10.5454545454545 26.3430397727273  L 10.5454545454545 18.4545454545455  L 2.63636363636364 18.4545454545455  Z M 2.63636363636364 2.63636363636364  L 2.63636363636364 10.5454545454545  L 10.5454545454545 10.5454545454545  L 10.5454545454545 2.63636363636364  L 2.63636363636364 2.63636363636364  Z M 18.4545454545455 2.63636363636364  L 18.4545454545455 10.5454545454545  L 26.3636363636364 10.5454545454545  L 26.3636363636364 2.63636363636364  L 18.4545454545455 2.63636363636364  Z M 0 15.8181818181818  L 13.1818181818182 15.8181818181818  L 13.1818181818182 29  L 0 29  L 0 15.8181818181818  Z M 21.0909090909091 26.3636363636364  L 23.7272727272727 26.3636363636364  L 23.7272727272727 29  L 21.0909090909091 29  L 21.0909090909091 26.3636363636364  Z M 26.3636363636364 26.3636363636364  L 29 26.3636363636364  L 29 29  L 26.3636363636364 29  L 26.3636363636364 26.3636363636364  Z M 26.3636363636364 15.8181818181818  L 29 15.8181818181818  L 29 23.7272727272727  L 21.0909090909091 23.7272727272727  L 21.0909090909091 21.0909090909091  L 18.4545454545455 21.0909090909091  L 18.4545454545455 29  L 15.8181818181818 29  L 15.8181818181818 15.8181818181818  L 23.7272727272727 15.8181818181818  L 23.7272727272727 18.4545454545455  L 26.3636363636364 18.4545454545455  L 26.3636363636364 15.8181818181818  Z M 0 0  L 13.1818181818182 0  L 13.1818181818182 13.1818181818182  L 0 13.1818181818182  L 0 0  Z M 15.8181818181818 0  L 29 0  L 29 13.1818181818182  L 15.8181818181818 13.1818181818182  L 15.8181818181818 0  Z " fill-rule="nonzero" fill="#ffffff" stroke="none" transform="matrix(1 0 0 1 20 19 )" />
  </g>
</svg>