<svg id="Layer_12" data-name="Layer 12" xmlns="http://www.w3.org/2000/svg" viewBox="0 0 88.75 185.86"><defs><style>.cls-1{fill:#7aab38;}.cls-2{fill:#e1a61a;}.cls-3{fill:#c08d18;}.cls-4{fill:#fbc207;}.cls-5{fill:#d8a507;}</style></defs><title>abacaxi</title><path class="cls-1" d="M158.81,131l-21.5-22.24,14.48.74c2.12.1,4.26.13,6.38.31,2.61.22,1.92-1.16,1.31-2.54l-11.59-26a37.08,37.08,0,0,1-2.56-7.11l17.73,11.91c1.4.94,2.84,1.82,4.17,2.85,1.73,1.33,2.6,1.11,3.21-1.11,2.71-9.74,5.54-19.44,8.33-29.15a17.86,17.86,0,0,1,1.83-4.59c1.19,4,2.4,8,3.55,12,2.13,7.41,4.27,14.82,6.31,22.26.56,2.06,1.36,1.7,2.73.76,6.5-4.46,13.06-8.85,19.6-13.26.72-.48,1.49-.91,2.4-1.46.52,1.43-.35,2.35-.77,3.29-4.37,9.89-8.8,19.76-13.19,29.64-1.25,2.82-1.21,2.78,2,2.76,6.1,0,12.2,0,18.7,0l-19.4,21c-1.37.25-2.11-1.48-3.52-1.12a12.59,12.59,0,0,0-5.25-1.73c-2.22-1.81-5-1.35-7.56-2a12.13,12.13,0,0,0-4.28-.46l-4.21,0c-.75,0-1.55-.26-2.18.41-2.9.56-6.07-.08-8.62,2C163.9,128.21,161.65,130.46,158.81,131Z" transform="translate(-135.98 -54.09)"/><path class="cls-2" d="M186.22,126.31c2.53.61,5.34.15,7.56,2a5.69,5.69,0,0,0-3.18,1.14c-1.94,1.92-3.78,4-5.71,5.89a1.64,1.64,0,0,0,0,2.7q5.93,5.9,11.8,11.82c.72.74,1.48,1.11,2.29.38,2.52-2.29,5.34-4.31,7-7.45l.52,0a7,7,0,0,0,1.57,4.3v2.1c-1.54.11-5.68,3.38-6.11,4.76-.14.47-.2.9.17,1.22,2.18,1.89,3.66,4.57,6.48,5.73v1.6c0,1.61,0,3.21,0,4.82-1,0-1.53-.83-2.15-1.44-2.13-2.11-4.32-4.18-6.35-6.39-1.34-1.46-2.3-1.38-3.7,0-3.59,3.53-6.88,7.38-10.88,10.51-1.51,1.19-1.8,2.6-.1,4.22,3.78,3.57,7.42,7.28,11,11,1.28,1.32,1.91,1.28,3.32-.11,2.86-2.83,5.26-6.2,8.84-8.26l.05,5.33,0,1.08c-2.69,1.2-4.26,3.68-6.34,5.58-.59.53-.84,1.3-.21,1.88,1.6,1.46,2.65,3.58,4.94,4.24v.54c-1.55.82-1,2.54-1.6,3.74l-.55,0c-2.34-.9-3.75-2.88-5.18-4.72-1.1-1.41-1.85-1.3-2.95-.2-3.91,3.94-7.85,7.86-11.77,11.79-.59.58-1.21,1.31-.55,2.06,2.64,3,5.1,6.21,8.76,8.1l-1.07,1a5.45,5.45,0,0,0-2.66,1.64L188.35,220c-1.33-3.88-4.61-6-7.66-8.29-.9-.66-1.62.28-2.24.9-3.75,3.74-7.46,7.52-11.26,11.22a2.11,2.11,0,0,0-.65,2.55l0,.54a31.78,31.78,0,0,1-7.48-.55c.05-1.67-.84-2.71-2.1-3.74a68,68,0,0,1-9-9c-2.09-2.52-3.56-2.73-5.81-.38a22.29,22.29,0,0,0-1.43,1.89,8.48,8.48,0,0,1-1.41-3.26c-.53-1.2.11-2,1-2.67,1.53-1.19,1.14-2.3-.07-3.46s-2.41-2.45-3.62-3.69c-.06-.48-.12-1-.19-1.44a.81.81,0,0,0-.07-1.26c-.51-7.51-.34-15-.1-22.54,2.42-.43,3.3-2.67,4.84-4.14a.86.86,0,0,0-.08-1.38c-1.56-1.34-2.57-3.33-4.69-4a17.73,17.73,0,0,1,1.05-7.43c.84.83.09,2.21,1.25,3.07A33.86,33.86,0,0,1,143,167c1.29,1.39,2.26,1.6,3.69.11q5.43-5.65,11.1-11.09c1.53-1.47,1.18-2.52-.28-3.64a45.23,45.23,0,0,1-5.22-5.23c-1.8-1.91-3-4.71-6.22-4.93a11,11,0,0,1,3.64-3.9,154.37,154.37,0,0,0,11.57,11.31c1.28,1.1,1.94,1,3-.12q5.46-5.64,11.09-11.11c1.3-1.26,1.49-2.21.06-3.5a71.46,71.46,0,0,1-5.07-5.08,4.69,4.69,0,0,0-3.49-1.61c2.55-2.08,5.72-1.44,8.62-2-.18.58-1.44.85-.62,1.71,1.59,1.67,3.24,3.28,4.91,4.87a1,1,0,0,0,.94.06C182.65,130.73,185.6,129.48,186.22,126.31Zm-5.64,13.93c-1,.08-1.34.74-1.83,1.23-3.59,3.56-7.07,7.23-10.76,10.68-1.89,1.75-1.52,3.1,0,4.65,3.49,3.47,7,7,10.47,10.42,1.22,1.19,2.54,1.55,3.85-.06,1-1.23,2.12-2.35,3.16-3.55,2.41-2.81,5.73-4.69,7.86-7.82.86-1.27.92-2.09-.2-3.18-3.87-3.77-7.65-7.62-11.48-11.43A14,14,0,0,0,180.58,140.24Zm-17.94,17.87a6.33,6.33,0,0,0-1.23.73c-4.1,4.06-8.16,8.15-12.26,12.21-.89.88-.54,1.49.18,2.22q6.06,6.14,12.08,12.32c.73.75,1.1.92,2.11.1,4-3.32,7.26-7.46,11.15-10.92,2.43-2.17,2.38-3,.06-5.14a133.57,133.57,0,0,1-10-9.95A13.33,13.33,0,0,0,162.64,158.11ZM163,193.5c-.95.11-1.34.76-1.83,1.25-3,2.93-5.9,5.88-8.85,8.83-3.7,3.7-3.7,3.7-.36,7.59.18.2.24.5.42.68,2.86,2.91,5.71,5.81,8.6,8.69a2.15,2.15,0,0,0,3.45,0c3.76-3.85,7.51-7.7,11.31-11.51,1-1,1.12-1.86.05-2.91-4-3.93-7.91-7.89-11.86-11.84A11.15,11.15,0,0,0,163,193.5Zm3.66-4a1.67,1.67,0,0,0,.6,1.63c3.89,4,7.77,8,11.66,12a1.84,1.84,0,0,0,3-.07q6-6.12,12.12-12.2c.6-.6,1-1,.21-1.68-4.41-3.61-7.8-8.2-11.85-12.15-1.18-1.15-2.19-1.36-3.57,0-3.5,3.5-6.73,7.3-10.71,10.3A4.06,4.06,0,0,0,166.64,189.52Zm-29.95.39c0,1.59,0,3.19,0,4.79a3.24,3.24,0,0,0,1,2.61c1.83,1.77,3.6,3.6,5.41,5.39,1.08,1.07,2.05,1.43,3.36.1,3.85-3.91,7.82-7.71,11.77-11.52,1.12-1.09.83-1.94-.16-2.91q-5.87-5.79-11.65-11.66c-1-1-1.9-1.15-2.91,0a20.08,20.08,0,0,1-2.44,2.44C137.5,181.88,135.49,185.23,136.69,189.91Z" transform="translate(-135.98 -54.09)"/><path class="cls-3" d="M208.55,167.3l0-4.82c2.33,1,3.83,3.06,5.55,4.8,1.22,1.24,2.08,1.15,3.31,0,2.22-2.13,4.54-4.16,6.06-6.9a14.78,14.78,0,0,1,1,6.93c-1.56.22-2.14,1.71-3.24,2.52-2,1.44-2.17,2.7-.14,4.48,2.55,2.23,2.41,2.39,3.45-.61q.4,13.56-.05,27.13a9.55,9.55,0,0,1-.41,1.8c0,.21-.09.42-.13.63l0,.13-.1.09c-2.64-.27-2.92,2.4-4.29,3.64-1,.89.57,2,1.25,2.74s.48,1.6.49,2.45a4.07,4.07,0,0,1-1.1,2.42,3.31,3.31,0,0,1-2.07-1.53c-1.75-2.19-3-1.89-4.85.1-3.21,3.46-6.79,6.59-10.21,9.86-1.21,1.16-1.66,2.15-.32,3.78a14.75,14.75,0,0,0,4.25,3.79,8.64,8.64,0,0,1-3.79,2.65,39.88,39.88,0,0,1-3.07-2.88c-1.47-1.67-2.78-1.87-4.37-.12s-3.64,3.56-5.34,5.44c-.85.93-2.13,1.65-2.09,3.18a32.66,32.66,0,0,1-16.08-.05c-1.62-3.85-5.51-5.67-7.95-8.81-1.3-1.66-2.57-1.35-4.05.38a3.9,3.9,0,0,0-1.1,3.85,16.67,16.67,0,0,1-6-3.9c1.81-.91,3.79-1.64,4.24-4l1.54-.08a31.78,31.78,0,0,0,7.48.55c1.12,0,1.68.9,2.36,1.58q4.8,4.75,9.57,9.56c1,1,2,1.7,3.37.37,3.92-3.93,7.86-7.85,11.86-11.71,1.1-1.06,1-1.73,0-2.81-1.47-1.6-3.58-2.67-4.23-5a5.45,5.45,0,0,1,2.66-1.64c2.3-.15,2.94,2.06,4.32,3.16s2.08,1.28,3.29,0c3.8-3.83,7.68-7.57,11.49-11.38,1.29-1.28,1-2.4-.42-3.52-2.22-1.74-4.44-3.53-5.37-6.38.65-1.2.05-2.92,1.6-3.73,1.95,2.53,4.67,4.32,6.7,6.72,1.66,1.95,2.71,1.68,4.28.18,6.06-5.8,6.08-5.78,6.08-14.17,0-1.15,0-2.31,0-3.46a3.26,3.26,0,0,0-1.1-2.58,71.42,71.42,0,0,1-5.15-5c-1.53-1.73-2.57-1.41-4.1.06-1.69,1.63-2.8,3.89-5.07,4.91,0-1.78,0-3.55-.05-5.33,0-.34,0-.68.07-1,4.79-3.23,4.21-4,.91-7.05a3.28,3.28,0,0,0-.92-.45Z" transform="translate(-135.98 -54.09)"/><path class="cls-4" d="M166.93,128.23a4.69,4.69,0,0,1,3.49,1.61,71.46,71.46,0,0,0,5.07,5.08c1.43,1.29,1.24,2.24-.06,3.5q-5.62,5.46-11.09,11.11c-1.08,1.11-1.74,1.22-3,.12a154.37,154.37,0,0,1-11.57-11.31c.19-.49.43-.92,1-1a.81.81,0,0,0,.77-.67,1.81,1.81,0,0,1,1.69-1.4c.55,0,.95-.23,1-.84,1.21-1.57,3.14-2.18,4.56-3.47C161.65,130.46,163.9,128.21,166.93,128.23Z" transform="translate(-135.98 -54.09)"/><path class="cls-4" d="M146.11,142.24c3.18.22,4.42,3,6.22,4.93a45.23,45.23,0,0,0,5.22,5.23c1.46,1.12,1.81,2.17.28,3.64q-5.66,5.43-11.1,11.09c-1.43,1.49-2.4,1.28-3.69-.11a33.86,33.86,0,0,0-4.46-4.09c-1.16-.86-.41-2.24-1.25-3.07A35.09,35.09,0,0,1,146.11,142.24Z" transform="translate(-135.98 -54.09)"/><path class="cls-5" d="M223.52,160.35c-1.52,2.74-3.84,4.77-6.06,6.9-1.23,1.18-2.09,1.27-3.31,0-1.72-1.74-3.22-3.76-5.55-4.8v-1.6a73.91,73.91,0,0,0-.54-11.71c0-.7,0-1.4,0-2.1,1.2-.12,1.62-1.14,2.34-1.89,1.37-1.42,2.51-3.87,5.18-1.93A38.44,38.44,0,0,1,223.52,160.35Z" transform="translate(-135.98 -54.09)"/><path class="cls-5" d="M207.05,230.7a14.75,14.75,0,0,1-4.25-3.79c-1.34-1.63-.89-2.62.32-3.78,3.42-3.27,7-6.4,10.21-9.86,1.85-2,3.1-2.29,4.85-.1a3.31,3.31,0,0,0,2.07,1.53C217.22,221.17,213.16,226.78,207.05,230.7Z" transform="translate(-135.98 -54.09)"/><path class="cls-4" d="M159,226.36l-1.54.08c-4-1-8.21-1.52-11.87-3.7l0,0c0-.62.16-1.43-.94-1.26-2.11-1.63-2.95-4.07-4-6.35a22.29,22.29,0,0,1,1.43-1.89c2.25-2.35,3.72-2.14,5.81.38a68,68,0,0,0,9,9C158.19,223.65,159.08,224.69,159,226.36Z" transform="translate(-135.98 -54.09)"/><path class="cls-5" d="M188.39,239c0-1.53,1.24-2.25,2.09-3.18,1.7-1.88,3.63-3.56,5.34-5.44s2.9-1.55,4.37.12a39.88,39.88,0,0,0,3.07,2.88A32.79,32.79,0,0,1,188.39,239Z" transform="translate(-135.98 -54.09)"/><path class="cls-5" d="M159.21,234.34a3.9,3.9,0,0,1,1.1-3.85c1.48-1.73,2.75-2,4.05-.38,2.44,3.14,6.33,5,7.95,8.81A29.13,29.13,0,0,1,159.21,234.34Z" transform="translate(-135.98 -54.09)"/><path class="cls-5" d="M206.48,142.77l-.52,0A32.36,32.36,0,0,0,199,130c1.41-.36,2.15,1.37,3.52,1.12,1.38,1.79,3.54,2.58,5.16,4.07.7.65,1.67,1,2,2a.72.72,0,0,0,.62.7v-.09C209.64,139.92,207.75,141.1,206.48,142.77Z" transform="translate(-135.98 -54.09)"/><path class="cls-3" d="M206.48,142.77c1.27-1.67,3.16-2.85,3.86-5,2.31,1.28,3.76,3.37,5.23,5.44-2.67-1.94-3.81.51-5.18,1.93-.72.75-1.14,1.77-2.34,1.89A7,7,0,0,1,206.48,142.77Z" transform="translate(-135.98 -54.09)"/><path class="cls-5" d="M145.62,222.74c3.66,2.18,7.85,2.66,11.87,3.7-.45,2.36-2.43,3.09-4.24,4C150.23,228.35,147.42,226.05,145.62,222.74Z" transform="translate(-135.98 -54.09)"/><path class="cls-4" d="M136.28,167.29c2.12.71,3.13,2.7,4.69,4a.86.86,0,0,1,.08,1.38c-1.54,1.47-2.42,3.71-4.84,4.14A47,47,0,0,1,136.28,167.29Z" transform="translate(-135.98 -54.09)"/><path class="cls-5" d="M224.55,173.67c-1,3-.9,2.84-3.45.61-2-1.78-1.84-3,.14-4.48,1.1-.81,1.68-2.3,3.24-2.52A25.31,25.31,0,0,1,224.55,173.67Z" transform="translate(-135.98 -54.09)"/><path class="cls-4" d="M136.57,202.09c1.21,1.24,2.38,2.5,3.62,3.69s1.6,2.27.07,3.46c-.87.68-1.51,1.47-1,2.67A26.75,26.75,0,0,1,136.57,202.09Z" transform="translate(-135.98 -54.09)"/><path class="cls-2" d="M221.35,212.28c0-.85.2-1.66-.49-2.45s-2.22-1.85-1.25-2.74c1.37-1.24,1.65-3.91,4.29-3.64A20.9,20.9,0,0,1,221.35,212.28Z" transform="translate(-135.98 -54.09)"/><path class="cls-5" d="M144.73,221.52c1.1-.17.89.64.94,1.26A1.19,1.19,0,0,1,144.73,221.52Z" transform="translate(-135.98 -54.09)"/><path class="cls-2" d="M154.25,134.48c-.05.61-.45.82-1,.84A1.1,1.1,0,0,1,154.25,134.48Z" transform="translate(-135.98 -54.09)"/><path class="cls-4" d="M136.31,199.39a.81.81,0,0,1,.07,1.26C136.36,200.23,136.34,199.81,136.31,199.39Z" transform="translate(-135.98 -54.09)"/><path class="cls-2" d="M224,203.23c0-.21.09-.42.13-.63C224.34,202.87,224.27,203.08,224,203.23Z" transform="translate(-135.98 -54.09)"/><path class="cls-2" d="M151.56,136.72a.81.81,0,0,1-.77.67Z" transform="translate(-135.98 -54.09)"/><path class="cls-3" d="M210.34,137.9a.72.72,0,0,1-.62-.7Z" transform="translate(-135.98 -54.09)"/><path class="cls-4" d="M199,130A32.36,32.36,0,0,1,206,142.75c-1.61,3.14-4.43,5.16-7,7.45-.81.73-1.57.36-2.29-.38q-5.86-5.94-11.8-11.82a1.64,1.64,0,0,1,0-2.7c1.93-1.94,3.77-4,5.71-5.89a5.69,5.69,0,0,1,3.18-1.14A12.59,12.59,0,0,1,199,130Z" transform="translate(-135.98 -54.09)"/><path class="cls-4" d="M186.22,126.31c-.62,3.17-3.57,4.42-5.44,6.56a1,1,0,0,1-.94-.06c-1.67-1.59-3.32-3.2-4.91-4.87-.82-.86.44-1.13.62-1.71.63-.67,1.43-.42,2.18-.41a4.76,4.76,0,0,0,4.21,0A12.13,12.13,0,0,1,186.22,126.31Z" transform="translate(-135.98 -54.09)"/><path class="cls-2" d="M181.94,125.85a4.76,4.76,0,0,1-4.21,0Z" transform="translate(-135.98 -54.09)"/><path class="cls-4" d="M180.58,140.24a14,14,0,0,1,1.12.94c3.83,3.81,7.61,7.66,11.48,11.43,1.12,1.09,1.06,1.91.2,3.18-2.13,3.13-5.45,5-7.86,7.82-1,1.2-2.17,2.32-3.16,3.55-1.31,1.61-2.63,1.25-3.85.06-3.52-3.44-7-6.95-10.47-10.42-1.57-1.55-1.94-2.9,0-4.65,3.69-3.45,7.17-7.12,10.76-10.68C179.24,141,179.63,140.32,180.58,140.24Z" transform="translate(-135.98 -54.09)"/><path class="cls-4" d="M162.64,158.11a13.33,13.33,0,0,1,2.13,1.57,133.57,133.57,0,0,0,10,9.95c2.32,2.12,2.37,3-.06,5.14-3.89,3.46-7.1,7.6-11.15,10.92-1,.82-1.38.65-2.11-.1q-6-6.19-12.08-12.32c-.72-.73-1.07-1.34-.18-2.22,4.1-4.06,8.16-8.15,12.26-12.21A6.33,6.33,0,0,1,162.64,158.11Z" transform="translate(-135.98 -54.09)"/><path class="cls-4" d="M163,193.5a11.15,11.15,0,0,1,.93.73c4,4,7.88,7.91,11.86,11.84,1.07,1.05,1,1.89-.05,2.91-3.8,3.81-7.55,7.66-11.31,11.51a2.15,2.15,0,0,1-3.45,0c-2.89-2.88-5.74-5.78-8.6-8.69-.18-.18-.24-.48-.42-.68-3.34-3.89-3.34-3.89.36-7.59,2.95-3,5.89-5.9,8.85-8.83C161.64,194.26,162,193.61,163,193.5Z" transform="translate(-135.98 -54.09)"/><path class="cls-4" d="M166.64,189.52a4.06,4.06,0,0,1,1.44-2.2c4-3,7.21-6.8,10.71-10.3,1.38-1.37,2.39-1.16,3.57,0,4,4,7.44,8.54,11.85,12.15.81.65.39,1.08-.21,1.68q-6.1,6.06-12.12,12.2a1.84,1.84,0,0,1-3,.07c-3.89-4-7.77-8-11.66-12A1.67,1.67,0,0,1,166.64,189.52Z" transform="translate(-135.98 -54.09)"/><path class="cls-4" d="M208.64,175.81c0,.35,0,.69-.07,1-3.58,2.06-6,5.43-8.84,8.26-1.41,1.39-2,1.43-3.32.11-3.62-3.73-7.26-7.44-11-11-1.7-1.62-1.41-3,.1-4.22,4-3.13,7.29-7,10.88-10.51,1.4-1.38,2.36-1.46,3.7,0,2,2.21,4.22,4.28,6.35,6.39.62.61,1.14,1.4,2.15,1.44,0,.34,0,.68.08,1Q208.63,172.06,208.64,175.81Z" transform="translate(-135.98 -54.09)"/><path class="cls-4" d="M136.69,189.91c-1.2-4.68.81-8,4.38-10.79a20.08,20.08,0,0,0,2.44-2.44c1-1.12,1.89-1,2.91,0q5.79,5.88,11.65,11.66c1,1,1.28,1.82.16,2.91-3.95,3.81-7.92,7.61-11.77,11.52-1.31,1.33-2.28,1-3.36-.1-1.81-1.79-3.58-3.62-5.41-5.39a3.24,3.24,0,0,1-1-2.61C136.72,193.1,136.69,191.5,136.69,189.91Z" transform="translate(-135.98 -54.09)"/><path class="cls-5" d="M208.62,182.17c2.27-1,3.38-3.28,5.07-4.91,1.53-1.47,2.57-1.79,4.1-.06a71.42,71.42,0,0,0,5.15,5,3.26,3.26,0,0,1,1.1,2.58c0,1.15,0,2.31,0,3.46,0,8.39,0,8.37-6.08,14.17-1.57,1.5-2.62,1.77-4.28-.18-2-2.4-4.75-4.19-6.7-6.72V195a61.59,61.59,0,0,0,1.61-11.7Z" transform="translate(-135.98 -54.09)"/><path class="cls-5" d="M189.42,218.94c.65,2.29,2.76,3.36,4.23,5,1,1.08,1.12,1.75,0,2.81-4,3.86-7.94,7.78-11.86,11.71-1.34,1.33-2.34.67-3.37-.37q-4.78-4.8-9.57-9.56c-.68-.68-1.24-1.55-2.36-1.58l0-.54a31,31,0,0,0,10.15-1.26c4.17-1.12,7.87-3.19,11.66-5.12Z" transform="translate(-135.98 -54.09)"/><path class="cls-4" d="M193.15,216.28c-3.66-1.89-6.12-5.11-8.76-8.1-.66-.75,0-1.48.55-2.06,3.92-3.93,7.86-7.85,11.77-11.79,1.1-1.1,1.85-1.21,2.95.2,1.43,1.84,2.84,3.82,5.18,4.72a4.85,4.85,0,0,1-.55,2.5A47.79,47.79,0,0,1,193.15,216.28Z" transform="translate(-135.98 -54.09)"/><path class="cls-5" d="M193.15,216.28a47.79,47.79,0,0,0,11.14-14.53,4.85,4.85,0,0,0,.55-2.5l.55,0c.93,2.85,3.15,4.64,5.37,6.38,1.45,1.12,1.71,2.24.42,3.52-3.81,3.81-7.69,7.55-11.49,11.38-1.21,1.23-2,1-3.29,0s-2-3.31-4.32-3.16Z" transform="translate(-135.98 -54.09)"/><path class="cls-4" d="M188.35,220c-3.79,1.93-7.49,4-11.66,5.12a31,31,0,0,1-10.15,1.26,2.11,2.11,0,0,1,.65-2.55c3.8-3.7,7.51-7.48,11.26-11.22.62-.62,1.34-1.56,2.24-.9C183.74,214,187,216.11,188.35,220Z" transform="translate(-135.98 -54.09)"/><path class="cls-4" d="M208.06,149.17a73.91,73.91,0,0,1,.54,11.71c-2.82-1.16-4.3-3.84-6.48-5.73-.37-.32-.31-.75-.17-1.22C202.38,152.55,206.52,149.28,208.06,149.17Z" transform="translate(-135.98 -54.09)"/><path class="cls-4" d="M208.6,183.25A61.59,61.59,0,0,1,207,195c-2.29-.66-3.34-2.78-4.94-4.24-.63-.58-.38-1.35.21-1.88C204.34,186.93,205.91,184.45,208.6,183.25Z" transform="translate(-135.98 -54.09)"/><path class="cls-5" d="M208.64,175.81q0-3.75,0-7.5a3.28,3.28,0,0,1,.92.45C212.85,171.83,213.43,172.58,208.64,175.81Z" transform="translate(-135.98 -54.09)"/></svg>