<?xml version="1.0" encoding="utf-8"?>
<!-- Generator: Adobe Illustrator 24.0.1, SVG Export Plug-In . SVG Version: 6.00 Build 0)  -->
<svg version="1.1" id="Layer_1" xmlns="http://www.w3.org/2000/svg" xmlns:xlink="http://www.w3.org/1999/xlink" x="0px" y="0px"
	 viewBox="0 0 360 360" style="enable-background:new 0 0 360 360;" xml:space="preserve">
<style type="text/css">
	.st0{display:none;}
	.st1{display:inline;}
	.st2{fill:url(#XMLID_6_);}
	.st3{fill:#FFFFFF;}
	.st4{fill:#EAC12E;}
	.st5{fill:#403411;}
	.st6{fill:none;stroke:#403411;stroke-width:6.6027;stroke-linecap:round;stroke-miterlimit:10;}
	.st7{fill:none;stroke:#403411;stroke-width:5.7006;stroke-linecap:round;stroke-miterlimit:10;}
	.st8{fill:none;stroke:#403411;stroke-width:5.4537;stroke-linecap:round;stroke-miterlimit:10;}
	.st9{fill:#BD3661;}
	.st10{fill:#B13C8B;}
	.st11{fill:#439941;}
</style>
<g id="Layer_1_1_" class="st0">
	<g id="XMLID_1_" class="st1">
		<g id="XMLID_13_">
			
				<image style="overflow:visible;opacity:0.75;enable-background:new    ;" width="343" height="343" id="XMLID_23_" xlink:href="9442ECF8.png"  transform="matrix(0.9971 0 0 0.9971 9.2671 9.2671)">
			</image>
			<g id="XMLID_16_">
				
					<linearGradient id="XMLID_6_" gradientUnits="userSpaceOnUse" x1="73.2598" y1="366.8794" x2="286.7402" y2="-2.8794" gradientTransform="matrix(1 0 0 -1 0 362)">
					<stop  offset="5.128205e-03" style="stop-color:#53177D"/>
					<stop  offset="1" style="stop-color:#001A5A"/>
				</linearGradient>
				<path id="XMLID_22_" class="st2" d="M316.6,343.5H43.4c-14.8,0-26.9-12.1-26.9-26.9V43.4c0-14.8,12.1-26.9,26.9-26.9h273.2
					c14.8,0,26.9,12.1,26.9,26.9v273.2C343.5,331.4,331.4,343.5,316.6,343.5z"/>
			</g>
		</g>
		<path id="XMLID_39_" class="st3" d="M303.9,264.6H56.1c-11.8,0-21.4-9.6-21.4-21.4V52.9c0-11.8,9.6-21.4,21.4-21.4h247.7
			c11.8,0,21.4,9.6,21.4,21.4v190.3C325.3,255,315.7,264.6,303.9,264.6z"/>
	</g>
</g>
<g id="Layer_3" class="st0">
	<g id="XMLID_2_" class="st1">
		<circle id="XMLID_3491_" class="st4" cx="180" cy="148.5" r="88.4"/>
		<ellipse id="XMLID_3490_" class="st5" cx="151.5" cy="119.2" rx="9.9" ry="13.8"/>
		<ellipse id="XMLID_3489_" class="st5" cx="208.4" cy="119.2" rx="9.9" ry="13.8"/>
		<path id="XMLID_3479_" class="st6" d="M134.5,166.2c6.8,20.9,26.6,34.7,47.9,33.6c19.6-1,36.8-14.4,42.9-33.6"/>
		<g id="XMLID_3474_">
			<path id="XMLID_19_" class="st5" d="M161.4,86.6c0,0-0.6,0.2-1.7,0.4c-0.5,0.1-1.1,0.3-1.9,0.5c-0.7,0.2-1.5,0.4-2.4,0.6
				s-1.8,0.5-2.7,0.8c-0.5,0.2-1,0.3-1.5,0.5s-1,0.4-1.5,0.6c-1,0.4-2,0.8-3,1.3c-0.5,0.2-1,0.5-1.5,0.7c-0.5,0.3-1,0.5-1.5,0.8
				l-1.5,0.9c-0.5,0.3-0.9,0.6-1.4,0.9s-0.9,0.7-1.3,1c-0.4,0.3-0.9,0.6-1.3,1c-0.8,0.7-1.6,1.4-2.3,2.1s-1.3,1.4-1.9,2
				c-1.2,1.3-2.1,2.5-2.7,3.4c-0.6,0.9-1,1.4-1,1.4s0-0.6,0.3-1.7c0.2-1.1,0.7-2.6,1.5-4.3c0.4-0.9,0.9-1.8,1.5-2.7
				c0.6-0.9,1.4-1.8,2.2-2.7c0.4-0.5,0.9-0.9,1.3-1.3c0.5-0.4,0.9-0.9,1.4-1.2c0.5-0.4,1-0.8,1.5-1.2l1.7-1c0.5-0.3,1.1-0.6,1.7-0.9
				c0.6-0.3,1.2-0.5,1.8-0.8c1.2-0.5,2.4-0.8,3.5-1.1c0.6-0.1,1.2-0.3,1.7-0.4c0.6-0.1,1.1-0.2,1.7-0.2c1.1-0.1,2.1-0.2,3-0.2
				s1.8,0.1,2.6,0.1c0.8,0.1,1.4,0.2,2,0.3C160.8,86.4,161.4,86.6,161.4,86.6z"/>
		</g>
		<g id="XMLID_3471_">
			<path id="XMLID_21_" class="st5" d="M202.8,86.6c0,0,0.6-0.2,1.7-0.4c0.5-0.1,1.2-0.2,2-0.3c0.8-0.1,1.6-0.1,2.6-0.1
				c0.9,0,2,0.1,3,0.2c0.5,0.1,1.1,0.2,1.7,0.2c0.6,0.1,1.1,0.2,1.7,0.4c1.2,0.3,2.4,0.6,3.5,1.1c0.6,0.2,1.2,0.5,1.8,0.8
				s1.2,0.5,1.7,0.9l1.7,1c0.5,0.4,1,0.8,1.5,1.2c0.5,0.4,1,0.8,1.4,1.2c0.4,0.4,0.9,0.8,1.3,1.3c0.8,0.9,1.6,1.8,2.2,2.7
				c0.6,0.9,1.1,1.8,1.5,2.7c0.8,1.7,1.3,3.2,1.5,4.3c0.2,1.1,0.3,1.7,0.3,1.7s-0.4-0.5-1-1.4s-1.5-2.1-2.7-3.4
				c-0.6-0.7-1.2-1.4-1.9-2c-0.7-0.7-1.5-1.4-2.3-2.1c-0.4-0.4-0.8-0.7-1.3-1c-0.4-0.3-0.9-0.7-1.3-1c-0.5-0.3-0.9-0.6-1.4-0.9
				l-1.5-0.9c-0.5-0.3-1-0.5-1.5-0.8s-1-0.5-1.5-0.7c-1-0.5-2-0.9-3-1.3c-0.5-0.2-1-0.4-1.5-0.6s-1-0.3-1.5-0.5
				c-1-0.3-1.9-0.6-2.7-0.8c-0.9-0.2-1.7-0.5-2.4-0.6c-0.7-0.2-1.3-0.3-1.9-0.5C203.4,86.8,202.8,86.6,202.8,86.6z"/>
		</g>
	</g>
</g>
<g id="Layer_4">
	<g id="XMLID_1898_">
		<circle id="XMLID_3488_" class="st4" cx="180" cy="180" r="176"/>
		<ellipse id="XMLID_3486_" class="st5" cx="127.8" cy="124" rx="19.7" ry="27.4"/>
		<ellipse id="XMLID_3485_" class="st5" cx="240.9" cy="124" rx="19.7" ry="27.4"/>
		<path id="XMLID_3478_" class="st7" d="M266.4,262.3c-12.6-31.3-49.5-51.8-89.1-50.2c-36.5,1.5-68.4,21.4-80,50.2"/>
		<g id="XMLID_3468_">
			<path id="XMLID_17_" class="st5" d="M142.5,69.9c0,0-1.4,0.4-3.5,0.8c-1.2,0.2-2.3,0.6-3.9,0.8c-1.5,0.2-3.1,0.6-4.8,0.8
				c-1.7,0.2-3.5,0.6-5.4,0.6c-1,0.2-1.9,0.2-2.9,0.4c-1,0.2-1.9,0.2-3.1,0.2c-2.1,0-4.3,0-6.4,0c-1.2,0-2.1,0-3.3,0
				c-1.2,0-2.1,0.2-3.3,0.4l-3.3,0.6c-1.2,0.4-2.1,0.6-3.1,1c-1.2,0.2-2.1,0.8-3.1,1c-1,0.4-2.1,0.6-3.1,1.2
				c-1.9,0.8-3.9,1.7-5.6,2.7c-1.7,1-3.3,1.9-4.6,2.9c-2.9,1.9-5,3.9-6.6,5.4c-1.5,1.4-2.3,2.3-2.3,2.3c-0.2,0.2-0.6,0.2-1,0
				c-0.2-0.2-0.2-0.6-0.2-0.8l0,0c0,0,0.6-1.2,1.5-2.9c1.2-1.9,2.9-4.4,5.2-7.3c1.2-1.4,2.7-2.9,4.3-4.4c1.5-1.5,3.5-2.9,5.4-4.4
				c1-0.8,2.1-1.4,3.1-2.1c1.2-0.6,2.1-1.4,3.3-1.9c1.2-0.6,2.3-1.2,3.5-1.7l3.7-1.4c1.2-0.6,2.5-0.8,3.7-1.4
				c1.2-0.4,2.5-0.8,3.7-1.2c2.5-0.8,5-1.4,7.5-1.5c1.2,0,2.5,0,3.7,0c1.2,0.2,2.3,0.2,3.5,0.4c2.3,0.4,4.3,1,6.2,1.5
				c1.9,0.6,3.5,1.4,5,2.1c1.4,0.8,2.7,1.5,3.5,2.3c1,0.8,1.7,1.4,2.1,1.7c0.4,0.4,0.8,0.8,0.8,0.8l0,0c0.2,0.4,0.2,0.8,0,1.2
				C142.7,69.7,142.5,69.7,142.5,69.9z"/>
		</g>
		<g id="XMLID_3465_">
			<path id="XMLID_12_" class="st5" d="M226,68.5c0,0,0.2-0.2,0.8-0.8c0.4-0.4,1.2-1,2.1-1.7s2.1-1.5,3.5-2.3c1.4-0.8,3.1-1.5,5-2.1
				c1.9-0.8,3.9-1.2,6.2-1.5c1.2-0.2,2.3-0.4,3.5-0.4s2.3,0,3.7,0c2.5,0.2,5,0.6,7.5,1.5c1.4,0.4,2.5,0.8,3.7,1.2
				c1.2,0.4,2.5,0.8,3.7,1.4l3.7,1.4c1.2,0.6,2.3,1.2,3.5,1.7c1.2,0.6,2.3,1.2,3.3,1.9s2.1,1.4,3.1,2.1c1.9,1.5,3.9,2.9,5.4,4.4
				c1.5,1.5,3.1,3.1,4.3,4.4c2.5,2.9,4.3,5.6,5.2,7.3c1.2,1.9,1.5,2.9,1.5,2.9l0,0c0.2,0.4,0,0.8-0.4,1c-0.2,0.2-0.6,0-0.8-0.2
				c0,0-0.8-1-2.3-2.3s-3.9-3.3-6.6-5.4c-1.4-1-3.1-1.9-4.6-2.9c-1.7-1-3.7-1.7-5.6-2.7c-1-0.4-1.9-0.8-3.1-1.2
				c-1-0.4-1.9-0.8-3.1-1c-1-0.4-2.1-0.6-3.1-1l-3.3-0.6c-1.2-0.2-2.1-0.2-3.3-0.4c-1.2-0.2-2.1-0.2-3.3,0c-2.1,0-4.3,0.2-6.4,0
				c-1,0-1.9,0-3.1-0.2c-1,0-1.9-0.2-2.9-0.4c-1.9-0.2-3.7-0.4-5.4-0.6c-1.7-0.2-3.3-0.4-4.8-0.8c-1.5-0.2-2.7-0.6-3.9-0.8
				c-2.1-0.4-3.5-0.8-3.5-0.8c-0.4-0.2-0.6-0.6-0.6-1C225.8,68.7,225.8,68.7,226,68.5L226,68.5z"/>
		</g>
	</g>
</g>
<g id="Layer_5" class="st0">
	<g id="XMLID_1899_" class="st1">
		<circle id="XMLID_3487_" class="st4" cx="180" cy="147" r="91.1"/>
		<ellipse id="XMLID_3483_" class="st5" cx="150.7" cy="122.9" rx="10.2" ry="14.2"/>
		<ellipse id="XMLID_3482_" class="st5" cx="209.2" cy="122.9" rx="10.2" ry="14.2"/>
		<path id="XMLID_3477_" class="st7" d="M223.8,197.3c-6.5-16.2-25.6-26.8-46.1-26c-18.9,0.8-35.4,11.1-41.4,26"/>
		<g id="XMLID_3460_">
			<path id="XMLID_27_" class="st5" d="M140.4,96.4c0,0,0.1-0.1,0.3-0.3c0.2-0.2,0.5-0.5,0.9-0.9c0.2-0.2,0.5-0.4,0.7-0.6
				c0.3-0.2,0.6-0.4,0.9-0.6c0.7-0.4,1.5-0.8,2.4-1.1c0.9-0.3,2-0.6,3.1-0.6c1.2-0.1,2.5,0,3.8,0.4c0.3,0.1,0.6,0.2,1,0.4
				c0.2,0.1,0.3,0.1,0.5,0.2l0.6,0.3c0.2,0.2,0.5,0.3,0.7,0.5c0.3,0.2,0.7,0.5,0.9,0.7c1.1,0.9,1.9,2,2.7,2.9c0.7,0.9,1.3,1.8,2,2.6
				c0.7,0.7,1.4,1.4,2.1,2c0.3,0.2,0.9,0.6,1.2,0.8c0.4,0.2,0.8,0.5,1.2,0.7c0.8,0.4,1.6,0.8,2.4,1c1.5,0.5,2.9,0.7,3.9,0.9
				c1,0.1,1.5,0.2,1.5,0.2c0.2,0,0.3,0.1,0.3,0.3c0,0.1-0.1,0.2-0.2,0.3l0,0c0,0-0.6,0.1-1.6,0.2s-2.5,0.2-4.3,0
				c-0.9-0.1-1.9-0.2-2.9-0.5c-0.5-0.1-1-0.3-1.6-0.5s-0.9-0.4-1.6-0.7c-1.1-0.5-2.1-1.2-3.1-2s-1.8-1.7-2.6-2.4
				c-0.8-0.7-1.6-1.3-2.3-1.7c-0.4-0.2-0.8-0.3-1.2-0.5l0,0c-0.1,0,0.1,0.1,0.1,0l0,0l0,0h-0.1H152l-0.3-0.1
				c-0.2-0.1-0.4-0.1-0.6-0.2c-1.5-0.4-3.1-0.7-4.7-0.9c-1.5-0.1-3-0.2-4-0.3c-0.5,0-1,0-1.2-0.1c-0.3,0-0.5-0.1-0.5-0.1
				C140.5,96.7,140.4,96.5,140.4,96.4C140.3,96.5,140.3,96.4,140.4,96.4z"/>
		</g>
		<g id="XMLID_3457_">
			<path id="XMLID_25_" class="st5" d="M219.3,96.9c0,0-0.2,0-0.5,0.1c-0.3,0-0.7,0-1.2,0.1c-1,0.1-2.5,0.1-4,0.3
				c-1.6,0.1-3.2,0.4-4.7,0.9c-0.2,0.1-0.4,0.1-0.6,0.2l-0.3,0.1h-0.1h-0.1l0,0l0,0c0,0,0.2-0.1,0.1,0l0,0c-0.4,0.2-0.8,0.3-1.2,0.5
				c-0.8,0.4-1.5,0.9-2.3,1.7c-0.8,0.7-1.7,1.6-2.6,2.4c-1,0.8-2,1.5-3.1,2c-0.6,0.3-1,0.4-1.6,0.7c-0.6,0.2-1.1,0.4-1.6,0.5
				c-1,0.3-2,0.4-2.9,0.5c-1.8,0.2-3.3,0.1-4.3,0s-1.6-0.2-1.6-0.2l0,0c-0.1,0-0.2-0.2-0.2-0.3c0-0.1,0.1-0.2,0.3-0.2
				c0,0,0.6,0,1.5-0.2c1-0.2,2.4-0.4,3.9-0.9c0.8-0.3,1.6-0.6,2.4-1c0.4-0.2,0.8-0.4,1.2-0.7c0.3-0.2,0.9-0.6,1.2-0.8
				c0.8-0.6,1.5-1.3,2.1-2c0.7-0.8,1.3-1.6,2-2.6c0.7-0.9,1.6-2,2.7-2.9c0.3-0.2,0.6-0.5,0.9-0.7c0.3-0.2,0.5-0.3,0.7-0.5l0.6-0.3
				c0.2-0.1,0.3-0.1,0.5-0.2c0.3-0.1,0.6-0.2,1-0.4c1.3-0.4,2.6-0.5,3.8-0.4s2.2,0.3,3.1,0.6c0.9,0.3,1.7,0.7,2.4,1.1
				c0.3,0.2,0.6,0.4,0.9,0.6c0.3,0.2,0.5,0.4,0.7,0.6c0.4,0.3,0.7,0.6,0.9,0.9c0.2,0.2,0.3,0.3,0.3,0.3c0.1,0.1,0.1,0.3,0,0.4
				C219.4,96.9,219.4,96.9,219.3,96.9z"/>
		</g>
	</g>
</g>
<g id="Layer_6" class="st0">
	<g id="XMLID_4_" class="st1">
		<circle id="XMLID_3484_" class="st4" cx="180" cy="148" r="91.1"/>
		<path id="XMLID_3455_" class="st8" d="M133.4,118.9c1.3,9.2,9.5,15.8,18.2,15.1c7.9-0.5,14.6-6.9,15.8-15.1"/>
		<path id="XMLID_3454_" class="st8" d="M192.7,118.9c1.3,9.2,9.5,15.8,18.2,15.1c7.9-0.5,14.6-6.9,15.8-15.1"/>
		<circle id="XMLID_3453_" class="st5" cx="179.9" cy="184.4" r="20.3"/>
		<g id="XMLID_1915_">
			<path id="XMLID_1916_" class="st9" d="M206.7,99.1l-0.3-3.5l9-13.6l-9.1,0.8l-0.3-3.3l14.2-1.3l0.3,3.1l-9.4,14.1l11.1-1l0.3,3.3
				L206.7,99.1z"/>
		</g>
		<g id="XMLID_1912_">
			<path id="XMLID_1913_" class="st9" d="M223.6,87l0.3-4.4l14-14.8L226.6,67l0.3-4.1l17.8,1.4l-0.3,3.8l-14.6,15.4l13.8,1.1
				l-0.3,4.1L223.6,87z"/>
		</g>
	</g>
</g>
<g id="Layer_7" class="st0">
	<g id="XMLID_5_" class="st1">
		<circle id="XMLID_3481_" class="st4" cx="180" cy="147.2" r="91.1"/>
		<ellipse id="XMLID_3480_" class="st5" cx="151.3" cy="124.6" rx="10.2" ry="12.5"/>
		<path id="XMLID_3449_" class="st10" d="M139.8,128.3h23c0,0-2.4,9.8-11,9.8S139.8,131.5,139.8,128.3z"/>
		<ellipse id="XMLID_3448_" class="st5" cx="209.9" cy="124.6" rx="10.2" ry="12.5"/>
		<path id="XMLID_3447_" class="st10" d="M198.4,128.3h23c0,0-2.4,9.8-11,9.8S198.4,131.5,198.4,128.3z"/>
		<path id="XMLID_3446_" class="st5" d="M203.4,191.4h-45.5c-3.6,0-6.5-2.9-6.5-6.5v-2.5c0-3.6,2.9-6.5,6.5-6.5h45.5
			c3.6,0,6.5,2.9,6.5,6.5v2.5C209.9,188.5,206.9,191.4,203.4,191.4z"/>
		<path id="XMLID_3445_" class="st11" d="M199.1,235.1v-47.4c0-3.1-2.5-5.6-5.6-5.6h-25.8c-3.1,0-5.6,2.5-5.6,5.6v47.4
			c-20.2,1.5-34.6,5.5-34.6,10.2c0,6,23.8,10.9,53.1,10.9s53.1-4.9,53.1-10.9C233.7,240.6,219.3,236.6,199.1,235.1z"/>
	</g>
</g>
</svg>
