<?xml version="1.0" encoding="utf-8"?>
<!-- Generator: Adobe Illustrator 24.0.1, SVG Export Plug-In . SVG Version: 6.00 Build 0)  -->
<svg version="1.1" id="Layer_1" xmlns="http://www.w3.org/2000/svg" xmlns:xlink="http://www.w3.org/1999/xlink" x="0px" y="0px"
	 viewBox="0 0 360 360" style="enable-background:new 0 0 360 360;" xml:space="preserve">
<style type="text/css">
	.st0{display:none;}
	.st1{display:inline;}
	.st2{fill:url(#XMLID_6_);}
	.st3{fill:#FFFFFF;}
	.st4{fill:#EAC12E;}
	.st5{fill:#403411;}
	.st6{fill:none;stroke:#403411;stroke-width:6.6027;stroke-linecap:round;stroke-miterlimit:10;}
	.st7{fill:none;stroke:#403411;stroke-width:5.7006;stroke-linecap:round;stroke-miterlimit:10;}
	.st8{fill:none;stroke:#403411;stroke-width:5.4537;stroke-linecap:round;stroke-miterlimit:10;}
	.st9{fill:#BD3661;}
	.st10{fill:#B13C8B;}
	.st11{fill:#439941;}
</style>
<g id="Layer_1_1_" class="st0">
	<g id="XMLID_1_" class="st1">
		<g id="XMLID_13_">
			
				<image style="overflow:visible;opacity:0.75;enable-background:new    ;" width="343" height="343" id="XMLID_23_" xlink:href="6C1C2899.png"  transform="matrix(0.9971 0 0 0.9971 9.2671 9.2671)">
			</image>
			<g id="XMLID_16_">
				
					<linearGradient id="XMLID_6_" gradientUnits="userSpaceOnUse" x1="73.2598" y1="366.8794" x2="286.7402" y2="-2.8794" gradientTransform="matrix(1 0 0 -1 0 362)">
					<stop  offset="5.128205e-03" style="stop-color:#53177D"/>
					<stop  offset="1" style="stop-color:#001A5A"/>
				</linearGradient>
				<path id="XMLID_22_" class="st2" d="M316.6,343.5H43.4c-14.8,0-26.9-12.1-26.9-26.9V43.4c0-14.8,12.1-26.9,26.9-26.9h273.2
					c14.8,0,26.9,12.1,26.9,26.9v273.2C343.5,331.4,331.4,343.5,316.6,343.5z"/>
			</g>
		</g>
		<path id="XMLID_39_" class="st3" d="M303.9,264.6H56.1c-11.8,0-21.4-9.6-21.4-21.4V52.9c0-11.8,9.6-21.4,21.4-21.4h247.7
			c11.8,0,21.4,9.6,21.4,21.4v190.3C325.3,255,315.7,264.6,303.9,264.6z"/>
	</g>
</g>
<g id="Layer_3">
	<g id="XMLID_2_">
		<circle id="XMLID_3491_" class="st4" cx="180" cy="180" r="177"/>
		<ellipse id="XMLID_3490_" class="st5" cx="122.9" cy="121.3" rx="19.8" ry="27.6"/>
		<ellipse id="XMLID_3489_" class="st5" cx="236.9" cy="121.3" rx="19.8" ry="27.6"/>
		<path id="XMLID_3479_" class="st6" d="M88.9,215.4c13.6,41.8,53.3,69.5,95.9,67.3c39.2-2,73.7-28.8,85.9-67.3"/>
		<g id="XMLID_3474_">
			<path id="XMLID_19_" class="st5" d="M142.8,56.1c0,0-1.2,0.4-3.4,0.8c-1,0.2-2.2,0.6-3.8,1c-1.4,0.4-3,0.8-4.8,1.2
				c-1.8,0.4-3.6,1-5.4,1.6c-1,0.4-2,0.6-3,1c-1,0.4-2,0.8-3,1.2c-2,0.8-4,1.6-6,2.6c-1,0.4-2,1-3,1.4c-1,0.6-2,1-3,1.6l-3,1.8
				c-1,0.6-1.8,1.2-2.8,1.8c-1,0.6-1.8,1.4-2.6,2c-0.8,0.6-1.8,1.2-2.6,2c-1.6,1.4-3.2,2.8-4.6,4.2c-1.4,1.4-2.6,2.8-3.8,4
				c-2.4,2.6-4.2,5-5.4,6.8c-1.2,1.8-2,2.8-2,2.8s0-1.2,0.6-3.4c0.4-2.2,1.4-5.2,3-8.6c0.8-1.8,1.8-3.6,3-5.4
				c1.2-1.8,2.8-3.6,4.4-5.4c0.8-1,1.8-1.8,2.6-2.6c1-0.8,1.8-1.8,2.8-2.4c1-0.8,2-1.6,3-2.4l3.4-2c1-0.6,2.2-1.2,3.4-1.8
				c1.2-0.6,2.4-1,3.6-1.6c2.4-1,4.8-1.6,7-2.2c1.2-0.2,2.4-0.6,3.4-0.8c1.2-0.2,2.2-0.4,3.4-0.4c2.2-0.2,4.2-0.4,6-0.4
				c1.8,0,3.6,0.2,5.2,0.2c1.6,0.2,2.8,0.4,4,0.6C141.6,55.7,142.8,56.1,142.8,56.1z"/>
		</g>
		<g id="XMLID_3471_">
			<path id="XMLID_21_" class="st5" d="M225.7,56.1c0,0,1.2-0.4,3.4-0.8c1-0.2,2.4-0.4,4-0.6c1.6-0.2,3.2-0.2,5.2-0.2
				c1.8,0,4,0.2,6,0.4c1,0.2,2.2,0.4,3.4,0.4c1.2,0.2,2.2,0.4,3.4,0.8c2.4,0.6,4.8,1.2,7,2.2c1.2,0.4,2.4,1,3.6,1.6
				c1.2,0.6,2.4,1,3.4,1.8l3.4,2c1,0.8,2,1.6,3,2.4c1,0.8,2,1.6,2.8,2.4c0.8,0.8,1.8,1.6,2.6,2.6c1.6,1.8,3.2,3.6,4.4,5.4
				c1.2,1.8,2.2,3.6,3,5.4c1.6,3.4,2.6,6.4,3,8.6c0.4,2.2,0.6,3.4,0.6,3.4s-0.8-1-2-2.8c-1.2-1.8-3-4.2-5.4-6.8
				c-1.2-1.4-2.4-2.8-3.8-4c-1.4-1.4-3-2.8-4.6-4.2c-0.8-0.8-1.6-1.4-2.6-2c-0.8-0.6-1.8-1.4-2.6-2c-1-0.6-1.8-1.2-2.8-1.8l-3-1.8
				c-1-0.6-2-1-3-1.6s-2-1-3-1.4c-2-1-4-1.8-6-2.6c-1-0.4-2-0.8-3-1.2c-1-0.4-2-0.6-3-1c-2-0.6-3.8-1.2-5.4-1.6
				c-1.8-0.4-3.4-1-4.8-1.2c-1.4-0.4-2.6-0.6-3.8-1C226.9,56.5,225.7,56.1,225.7,56.1z"/>
		</g>
	</g>
</g>
<g id="Layer_4" class="st0">
	<g id="XMLID_1898_" class="st1">
		<circle id="XMLID_3488_" class="st4" cx="180" cy="146.4" r="91.1"/>
		<ellipse id="XMLID_3486_" class="st5" cx="153" cy="117.4" rx="10.2" ry="14.2"/>
		<ellipse id="XMLID_3485_" class="st5" cx="211.5" cy="117.4" rx="10.2" ry="14.2"/>
		<path id="XMLID_3478_" class="st7" d="M224.7,189c-6.5-16.2-25.6-26.8-46.1-26c-18.9,0.8-35.4,11.1-41.4,26"/>
		<g id="XMLID_3468_">
			<path id="XMLID_17_" class="st5" d="M160.6,89.4c0,0-0.7,0.2-1.8,0.4c-0.6,0.1-1.2,0.3-2,0.4s-1.6,0.3-2.5,0.4s-1.8,0.3-2.8,0.3
				c-0.5,0.1-1,0.1-1.5,0.2s-1,0.1-1.6,0.1c-1.1,0-2.2,0-3.3,0c-0.6,0-1.1,0-1.7,0c-0.6,0-1.1,0.1-1.7,0.2l-1.7,0.3
				c-0.6,0.2-1.1,0.3-1.6,0.5c-0.6,0.1-1.1,0.4-1.6,0.5c-0.5,0.2-1.1,0.3-1.6,0.6c-1,0.4-2,0.9-2.9,1.4s-1.7,1-2.4,1.5
				c-1.5,1-2.6,2-3.4,2.8c-0.8,0.7-1.2,1.2-1.2,1.2c-0.1,0.1-0.3,0.1-0.5,0c-0.1-0.1-0.1-0.3-0.1-0.4l0,0c0,0,0.3-0.6,0.8-1.5
				c0.6-1,1.5-2.3,2.7-3.8c0.6-0.7,1.4-1.5,2.2-2.3s1.8-1.5,2.8-2.3c0.5-0.4,1.1-0.7,1.6-1.1c0.6-0.3,1.1-0.7,1.7-1
				c0.6-0.3,1.2-0.6,1.8-0.9l1.9-0.7c0.6-0.3,1.3-0.4,1.9-0.7c0.6-0.2,1.3-0.4,1.9-0.6c1.3-0.4,2.6-0.7,3.9-0.8c0.6,0,1.3,0,1.9,0
				c0.6,0.1,1.2,0.1,1.8,0.2c1.2,0.2,2.2,0.5,3.2,0.8s1.8,0.7,2.6,1.1c0.7,0.4,1.4,0.8,1.8,1.2c0.5,0.4,0.9,0.7,1.1,0.9
				c0.2,0.2,0.4,0.4,0.4,0.4l0,0c0.1,0.2,0.1,0.4,0,0.6C160.7,89.3,160.6,89.3,160.6,89.4z"/>
		</g>
		<g id="XMLID_3465_">
			<path id="XMLID_12_" class="st5" d="M203.8,88.7c0,0,0.1-0.1,0.4-0.4c0.2-0.2,0.6-0.5,1.1-0.9s1.1-0.8,1.8-1.2
				c0.7-0.4,1.6-0.8,2.6-1.1c1-0.4,2-0.6,3.2-0.8c0.6-0.1,1.2-0.2,1.8-0.2s1.2,0,1.9,0c1.3,0.1,2.6,0.3,3.9,0.8
				c0.7,0.2,1.3,0.4,1.9,0.6c0.6,0.2,1.3,0.4,1.9,0.7l1.9,0.7c0.6,0.3,1.2,0.6,1.8,0.9s1.2,0.6,1.7,1s1.1,0.7,1.6,1.1
				c1,0.8,2,1.5,2.8,2.3s1.6,1.6,2.2,2.3c1.3,1.5,2.2,2.9,2.7,3.8c0.6,1,0.8,1.5,0.8,1.5l0,0c0.1,0.2,0,0.4-0.2,0.5
				c-0.1,0.1-0.3,0-0.4-0.1c0,0-0.4-0.5-1.2-1.2s-2-1.7-3.4-2.8c-0.7-0.5-1.6-1-2.4-1.5c-0.9-0.5-1.9-0.9-2.9-1.4
				c-0.5-0.2-1-0.4-1.6-0.6c-0.5-0.2-1-0.4-1.6-0.5c-0.5-0.2-1.1-0.3-1.6-0.5l-1.7-0.3c-0.6-0.1-1.1-0.1-1.7-0.2
				c-0.6-0.1-1.1-0.1-1.7,0c-1.1,0-2.2,0.1-3.3,0c-0.5,0-1,0-1.6-0.1c-0.5,0-1-0.1-1.5-0.2c-1-0.1-1.9-0.2-2.8-0.3
				c-0.9-0.1-1.7-0.2-2.5-0.4c-0.8-0.1-1.4-0.3-2-0.4c-1.1-0.2-1.8-0.4-1.8-0.4c-0.2-0.1-0.3-0.3-0.3-0.5
				C203.7,88.8,203.7,88.8,203.8,88.7L203.8,88.7z"/>
		</g>
	</g>
</g>
<g id="Layer_5" class="st0">
	<g id="XMLID_1899_" class="st1">
		<circle id="XMLID_3487_" class="st4" cx="180" cy="147" r="91.1"/>
		<ellipse id="XMLID_3483_" class="st5" cx="150.7" cy="122.9" rx="10.2" ry="14.2"/>
		<ellipse id="XMLID_3482_" class="st5" cx="209.2" cy="122.9" rx="10.2" ry="14.2"/>
		<path id="XMLID_3477_" class="st7" d="M223.8,197.3c-6.5-16.2-25.6-26.8-46.1-26c-18.9,0.8-35.4,11.1-41.4,26"/>
		<g id="XMLID_3460_">
			<path id="XMLID_27_" class="st5" d="M140.4,96.4c0,0,0.1-0.1,0.3-0.3c0.2-0.2,0.5-0.5,0.9-0.9c0.2-0.2,0.5-0.4,0.7-0.6
				c0.3-0.2,0.6-0.4,0.9-0.6c0.7-0.4,1.5-0.8,2.4-1.1c0.9-0.3,2-0.6,3.1-0.6c1.2-0.1,2.5,0,3.8,0.4c0.3,0.1,0.6,0.2,1,0.4
				c0.2,0.1,0.3,0.1,0.5,0.2l0.6,0.3c0.2,0.2,0.5,0.3,0.7,0.5c0.3,0.2,0.7,0.5,0.9,0.7c1.1,0.9,1.9,2,2.7,2.9c0.7,0.9,1.3,1.8,2,2.6
				c0.7,0.7,1.4,1.4,2.1,2c0.3,0.2,0.9,0.6,1.2,0.8c0.4,0.2,0.8,0.5,1.2,0.7c0.8,0.4,1.6,0.8,2.4,1c1.5,0.5,2.9,0.7,3.9,0.9
				c1,0.1,1.5,0.2,1.5,0.2c0.2,0,0.3,0.1,0.3,0.3c0,0.1-0.1,0.2-0.2,0.3l0,0c0,0-0.6,0.1-1.6,0.2s-2.5,0.2-4.3,0
				c-0.9-0.1-1.9-0.2-2.9-0.5c-0.5-0.1-1-0.3-1.6-0.5s-0.9-0.4-1.6-0.7c-1.1-0.5-2.1-1.2-3.1-2s-1.8-1.7-2.6-2.4
				c-0.8-0.7-1.6-1.3-2.3-1.7c-0.4-0.2-0.8-0.3-1.2-0.5l0,0c-0.1,0,0.1,0.1,0.1,0l0,0l0,0h-0.1H152l-0.3-0.1
				c-0.2-0.1-0.4-0.1-0.6-0.2c-1.5-0.4-3.1-0.7-4.7-0.9c-1.5-0.1-3-0.2-4-0.3c-0.5,0-1,0-1.2-0.1c-0.3,0-0.5-0.1-0.5-0.1
				C140.5,96.7,140.4,96.5,140.4,96.4C140.3,96.5,140.3,96.4,140.4,96.4z"/>
		</g>
		<g id="XMLID_3457_">
			<path id="XMLID_25_" class="st5" d="M219.3,96.9c0,0-0.2,0-0.5,0.1c-0.3,0-0.7,0-1.2,0.1c-1,0.1-2.5,0.1-4,0.3
				c-1.6,0.1-3.2,0.4-4.7,0.9c-0.2,0.1-0.4,0.1-0.6,0.2l-0.3,0.1h-0.1h-0.1l0,0l0,0c0,0,0.2-0.1,0.1,0l0,0c-0.4,0.2-0.8,0.3-1.2,0.5
				c-0.8,0.4-1.5,0.9-2.3,1.7c-0.8,0.7-1.7,1.6-2.6,2.4c-1,0.8-2,1.5-3.1,2c-0.6,0.3-1,0.4-1.6,0.7c-0.6,0.2-1.1,0.4-1.6,0.5
				c-1,0.3-2,0.4-2.9,0.5c-1.8,0.2-3.3,0.1-4.3,0s-1.6-0.2-1.6-0.2l0,0c-0.1,0-0.2-0.2-0.2-0.3c0-0.1,0.1-0.2,0.3-0.2
				c0,0,0.6,0,1.5-0.2c1-0.2,2.4-0.4,3.9-0.9c0.8-0.3,1.6-0.6,2.4-1c0.4-0.2,0.8-0.4,1.2-0.7c0.3-0.2,0.9-0.6,1.2-0.8
				c0.8-0.6,1.5-1.3,2.1-2c0.7-0.8,1.3-1.6,2-2.6c0.7-0.9,1.6-2,2.7-2.9c0.3-0.2,0.6-0.5,0.9-0.7c0.3-0.2,0.5-0.3,0.7-0.5l0.6-0.3
				c0.2-0.1,0.3-0.1,0.5-0.2c0.3-0.1,0.6-0.2,1-0.4c1.3-0.4,2.6-0.5,3.8-0.4s2.2,0.3,3.1,0.6c0.9,0.3,1.7,0.7,2.4,1.1
				c0.3,0.2,0.6,0.4,0.9,0.6c0.3,0.2,0.5,0.4,0.7,0.6c0.4,0.3,0.7,0.6,0.9,0.9c0.2,0.2,0.3,0.3,0.3,0.3c0.1,0.1,0.1,0.3,0,0.4
				C219.4,96.9,219.4,96.9,219.3,96.9z"/>
		</g>
	</g>
</g>
<g id="Layer_6" class="st0">
	<g id="XMLID_4_" class="st1">
		<circle id="XMLID_3484_" class="st4" cx="180" cy="148" r="91.1"/>
		<path id="XMLID_3455_" class="st8" d="M133.4,118.9c1.3,9.2,9.5,15.8,18.2,15.1c7.9-0.5,14.6-6.9,15.8-15.1"/>
		<path id="XMLID_3454_" class="st8" d="M192.7,118.9c1.3,9.2,9.5,15.8,18.2,15.1c7.9-0.5,14.6-6.9,15.8-15.1"/>
		<circle id="XMLID_3453_" class="st5" cx="179.9" cy="184.4" r="20.3"/>
		<g id="XMLID_1915_">
			<path id="XMLID_1916_" class="st9" d="M206.7,99.1l-0.3-3.5l9-13.6l-9.1,0.8l-0.3-3.3l14.2-1.3l0.3,3.1l-9.4,14.1l11.1-1l0.3,3.3
				L206.7,99.1z"/>
		</g>
		<g id="XMLID_1912_">
			<path id="XMLID_1913_" class="st9" d="M223.6,87l0.3-4.4l14-14.8L226.6,67l0.3-4.1l17.8,1.4l-0.3,3.8l-14.6,15.4l13.8,1.1
				l-0.3,4.1L223.6,87z"/>
		</g>
	</g>
</g>
<g id="Layer_7" class="st0">
	<g id="XMLID_5_" class="st1">
		<circle id="XMLID_3481_" class="st4" cx="180" cy="147.2" r="91.1"/>
		<ellipse id="XMLID_3480_" class="st5" cx="151.3" cy="124.6" rx="10.2" ry="12.5"/>
		<path id="XMLID_3449_" class="st10" d="M139.8,128.3h23c0,0-2.4,9.8-11,9.8S139.8,131.5,139.8,128.3z"/>
		<ellipse id="XMLID_3448_" class="st5" cx="209.9" cy="124.6" rx="10.2" ry="12.5"/>
		<path id="XMLID_3447_" class="st10" d="M198.4,128.3h23c0,0-2.4,9.8-11,9.8S198.4,131.5,198.4,128.3z"/>
		<path id="XMLID_3446_" class="st5" d="M203.4,191.4h-45.5c-3.6,0-6.5-2.9-6.5-6.5v-2.5c0-3.6,2.9-6.5,6.5-6.5h45.5
			c3.6,0,6.5,2.9,6.5,6.5v2.5C209.9,188.5,206.9,191.4,203.4,191.4z"/>
		<path id="XMLID_3445_" class="st11" d="M199.1,235.1v-47.4c0-3.1-2.5-5.6-5.6-5.6h-25.8c-3.1,0-5.6,2.5-5.6,5.6v47.4
			c-20.2,1.5-34.6,5.5-34.6,10.2c0,6,23.8,10.9,53.1,10.9s53.1-4.9,53.1-10.9C233.7,240.6,219.3,236.6,199.1,235.1z"/>
	</g>
</g>
</svg>
