<?xml version="1.0" encoding="utf-8"?>
<!-- Generator: Adobe Illustrator 24.0.1, SVG Export Plug-In . SVG Version: 6.00 Build 0)  -->
<svg version="1.1" id="Capa_1" xmlns="http://www.w3.org/2000/svg" xmlns:xlink="http://www.w3.org/1999/xlink" x="0px" y="0px"
	 viewBox="0 0 512 512" style="enable-background:new 0 0 512 512;" xml:space="preserve">
<style type="text/css">
	.st0{fill:#F0F0FA;}
	.st1{fill:#78D2FA;}
	.st2{fill:#FFFFFF;}
	.st3{fill:#1875EF;}
	.st4{fill:#C8F5FF;}
</style>
<rect x="212" y="384" class="st0" width="88" height="58"/>
<path class="st1" d="M156,482h200v-8c0-17.7-14.3-32-32-32H188c-17.7,0-32,14.3-32,32V482z"/>
<path class="st2" d="M470,30c17.7,0,32,14.3,32,32v282c0,22.1-17.9,40-40,40H50c-22.1,0-40-17.9-40-40V62c0-17.7,14.3-32,32-32H470
	L470,30z"/>
<path class="st1" d="M10,303.7V344c0,22.1,17.9,40,40,40h412c22.1,0,40-17.9,40-40v-40.3H10z"/>
<path class="st3" d="M302,410V207.5c0-16.3,13.2-29.5,29.5-29.5h141c16.3,0,29.5,13.2,29.5,29.5v245c0,16.3-13.2,29.5-29.5,29.5
	h-141c-16.3,0-29.5-13.2-29.5-29.5V410"/>
<rect x="302" y="236.1" class="st4" width="200" height="191.9"/>
<path d="M256.9,354L256.9,354c5.6,0,10-4.5,10-10s-4.5-10-10-10s-10,4.5-10,10S251.4,354,256.9,354z"/>
<path d="M470,20H42C18.8,20,0,38.8,0,62v282c0,27.6,22.4,50,50,50h152v38h-14c-23.2,0-42,18.8-42,42v8c0,5.5,4.5,10,10,10h173
	c0.3,0,0.6,0,0.9,0c0.5,0,142.6,0,142.6,0c21.8,0,39.5-17.7,39.5-39.5V428V62C512,38.8,493.2,20,470,20z M492,418H312v-34V246.1h180
	V418z M312,226.1v-18.6c0-10.8,8.7-19.5,19.5-19.5h141c10.8,0,19.5,8.7,19.5,19.5v18.6H312z M42,40h428c12.1,0,22,9.9,22,22v111.2
	c-5.8-3.3-12.4-5.2-19.5-5.2h-141c-10.1,0-19.2,3.8-26.2,10h-53.8c-5.5,0-10,4.5-10,10s4.5,10,10,10h41.7c-0.8,3-1.2,6.2-1.2,9.5
	V294H20V62C20,49.9,29.9,40,42,40z M20,344v-30h272v60h-80H50C33.5,374,20,360.5,20,344z M222,394h70v38h-70V394z M188,452h24h80
	v0.5c0,7.1,1.9,13.7,5.2,19.5H166.1C167.1,460.8,176.5,452,188,452z M472.5,472h-141c-10.8,0-19.5-8.7-19.5-19.5V442v-4h180v14.5
	C492,463.3,483.3,472,472.5,472z"/>
<path d="M426.8,197h-49.5c-5.5,0-10,4.5-10,10s4.5,10,10,10h49.5c5.5,0,10-4.5,10-10S432.3,197,426.8,197z"/>
<path d="M402.1,445H402c-5.5,0-10,4.5-10,10s4.5,10,10,10h0.1c5.5,0,10-4.5,10-10S407.6,445,402.1,445z"/>
<path d="M323.7,339.1l25.4,25.4c2,2,4.5,2.9,7.1,2.9s5.1-1,7.1-2.9c3.9-3.9,3.9-10.2,0-14.1L344.9,332l18.4-18.4
	c3.9-3.9,3.9-10.2,0-14.1s-10.2-3.9-14.1,0L323.7,325C319.8,328.9,319.8,335.2,323.7,339.1z"/>
<path d="M440.8,364.6c2,2,4.5,2.9,7.1,2.9s5.1-1,7.1-2.9l25.4-25.4c3.9-3.9,3.9-10.2,0-14.1L455,299.7c-3.9-3.9-10.2-3.9-14.1,0
	s-3.9,10.2,0,14.1l18.4,18.4l-18.4,18.4C436.9,354.3,436.9,360.7,440.8,364.6z"/>
<path d="M379,371.2c1.6,0.9,3.3,1.4,5.1,1.4c3.4,0,6.8-1.8,8.6-4.9l35.9-61.1c2.8-4.8,1.2-10.9-3.6-13.7c-4.8-2.8-10.9-1.2-13.7,3.6
	l-35.9,61.1C372.6,362.3,374.2,368.4,379,371.2z"/>
<path d="M96,150h139.6c5.5,0,10-4.5,10-10s-4.5-10-10-10H96c-5.5,0-10,4.5-10,10S90.5,150,96,150z"/>
<path d="M416,130H283.8c-5.5,0-10,4.5-10,10s4.5,10,10,10H416c5.5,0,10-4.5,10-10S421.5,130,416,130z"/>
<path d="M96,102h228.6c5.5,0,10-4.5,10-10s-4.5-10-10-10H96c-5.5,0-10,4.5-10,10S90.5,102,96,102z"/>
<path d="M376.1,102H416c5.5,0,10-4.5,10-10s-4.5-10-10-10h-39.9c-5.5,0-10,4.5-10,10S370.6,102,376.1,102z"/>
<path d="M219,236c0,5.5,4.5,10,10,10h39.9c5.5,0,10-4.5,10-10s-4.5-10-10-10H229C223.5,226,219,230.5,219,236z"/>
<path d="M96,246h77.7c5.5,0,10-4.5,10-10s-4.5-10-10-10H96c-5.5,0-10,4.5-10,10S90.5,246,96,246z"/>
<path d="M96,198h81.7c5.5,0,10-4.5,10-10s-4.5-10-10-10H96c-5.5,0-10,4.5-10,10S90.5,198,96,198z"/>
<path d="M226,188c0-2.6-1.1-5.2-2.9-7.1c-1.9-1.9-4.4-2.9-7.1-2.9s-5.2,1.1-7.1,2.9c-1.9,1.9-2.9,4.4-2.9,7.1c0,2.6,1.1,5.2,2.9,7.1
	c1.9,1.9,4.4,2.9,7.1,2.9s5.2-1.1,7.1-2.9C224.9,193.2,226,190.6,226,188z"/>
</svg>
