<?xml version="1.0" encoding="utf-8"?>
<!-- Generator: Adobe Illustrator 24.0.1, SVG Export Plug-In . SVG Version: 6.00 Build 0)  -->
<svg version="1.1" id="Camada_1" xmlns="http://www.w3.org/2000/svg" xmlns:xlink="http://www.w3.org/1999/xlink" x="0px" y="0px"
	 viewBox="0 0 29 29" style="enable-background:new 0 0 29 29;" xml:space="preserve">
<style type="text/css">
	.st0{fill:#D6DAF7;}
	.st1{fill:#3657E0;}
</style>
<g>
	<circle class="st0" cx="14.5" cy="14.5" r="14"/>
	<path class="st1" d="M14.5,14.5c1.9,0,3.5-1.6,3.5-3.5s-1.6-3.5-3.5-3.5S11,9,11,11S12.5,14.5,14.5,14.5z M14.5,9.2
		c1,0,1.8,0.8,1.8,1.8s-0.8,1.8-1.8,1.8S12.7,12,12.7,11S13.5,9.2,14.5,9.2z M14.5,16.2c-2.3,0-7,1.2-7,3.5v1.8h14v-1.8
		C21.5,17.4,16.8,16.2,14.5,16.2z M9.2,19.7c0.2-0.6,2.9-1.8,5.3-1.8s5.1,1.1,5.3,1.8H9.2z"/>
</g>
</svg>
