<?xml version="1.0" encoding="utf-8"?>
<!-- Generator: Adobe Illustrator 24.0.1, SVG Export Plug-In . SVG Version: 6.00 Build 0)  -->
<svg version="1.1" xmlns="http://www.w3.org/2000/svg" xmlns:xlink="http://www.w3.org/1999/xlink" x="0px" y="0px"
	 viewBox="0 0 340 319" style="enable-background:new 0 0 340 319;" xml:space="preserve">
<style type="text/css">
	.st0{fill:#0065BF;}
	.st1{fill:#1B7ACE;}
	.st2{fill:#1974C5;}
	.st3{fill:none;stroke:#1974C5;stroke-width:2;stroke-miterlimit:10;}
	.st4{fill:none;stroke:#1974C5;stroke-width:2;stroke-linecap:round;stroke-miterlimit:10;}
	.st5{fill:#0E72C9;}
</style>
<g id="Back_1_">
	<rect class="st0" width="340" height="319"/>
</g>
<g id="Formas">
	<g>
		<path class="st1" d="M322.49,257.1c0.01,0.89-0.32,1.43-1.12,1.52c-0.88,0.1-1.47-0.28-1.54-1.21c-0.06-0.78,0.31-1.32,1.11-1.41
			C321.83,255.89,322.36,256.31,322.49,257.1z"/>
		<path class="st1" d="M312.47,257.31c-0.11,1.01-0.66,1.41-1.54,1.32c-0.8-0.08-1.18-0.62-1.13-1.4c0.06-0.93,0.64-1.32,1.52-1.23
			C312.13,256.08,312.44,256.63,312.47,257.31z"/>
		<path class="st1" d="M326.26,253.65c-0.79,0-1.32-0.34-1.4-1.14c-0.09-0.87,0.3-1.47,1.24-1.51c0.9-0.04,1.41,0.44,1.41,1.35
			C327.49,253.14,327.05,253.57,326.26,253.65z"/>
		<path class="st1" d="M316.07,253.64c-0.91-0.09-1.33-0.63-1.25-1.51c0.07-0.8,0.59-1.19,1.38-1.15c0.93,0.05,1.34,0.62,1.26,1.5
			C317.39,253.28,316.87,253.64,316.07,253.64z"/>
		<path class="st1" d="M321.12,245.51c0.88,0.03,1.38,0.47,1.36,1.39c-0.02,0.79-0.47,1.25-1.26,1.27c-0.91,0.02-1.4-0.46-1.39-1.37
			C319.84,246,320.3,245.58,321.12,245.51z"/>
		<path class="st1" d="M331.65,279.58c-0.89-0.04-1.37-0.51-1.34-1.42c0.03-0.8,0.5-1.23,1.3-1.24c0.92-0.01,1.38,0.5,1.35,1.41
			C332.94,279.13,332.46,279.53,331.65,279.58z"/>
		<path class="st1" d="M322.49,278.21c-0.03,0.81-0.41,1.3-1.22,1.35c-0.9,0.05-1.43-0.39-1.45-1.31c-0.02-0.79,0.4-1.28,1.2-1.33
			C321.93,276.86,322.43,277.32,322.49,278.21z"/>
		<path class="st1" d="M311.12,276.9c1.01,0.11,1.41,0.66,1.32,1.54c-0.08,0.8-0.62,1.18-1.4,1.13c-0.93-0.06-1.32-0.64-1.23-1.52
			C309.89,277.24,310.44,276.92,311.12,276.9z"/>
		<path class="st1" d="M300.57,279.58c-0.91-0.09-1.33-0.63-1.25-1.51c0.07-0.8,0.59-1.19,1.38-1.15c0.93,0.05,1.34,0.62,1.26,1.5
			C301.89,279.21,301.37,279.57,300.57,279.58z"/>
		<path class="st1" d="M291.95,278.36c-0.11,0.9-0.67,1.29-1.55,1.19c-0.81-0.09-1.17-0.64-1.11-1.41c0.07-0.93,0.66-1.31,1.54-1.21
			C291.63,277.02,291.96,277.56,291.95,278.36z"/>
		<path class="st1" d="M336.59,274.12c-0.91-0.09-1.33-0.63-1.25-1.51c0.07-0.8,0.59-1.19,1.38-1.15c0.93,0.05,1.34,0.62,1.26,1.5
			C337.91,273.75,337.38,274.11,336.59,274.12z"/>
		<path class="st1" d="M326.1,274.12c-0.91-0.09-1.33-0.63-1.25-1.51c0.07-0.8,0.59-1.19,1.38-1.15c0.93,0.05,1.34,0.62,1.26,1.5
			C327.42,273.75,326.9,274.11,326.1,274.12z"/>
		<path class="st1" d="M317.48,272.81c-0.06,0.89-0.56,1.35-1.46,1.29c-0.8-0.05-1.22-0.54-1.2-1.33c0.02-0.92,0.56-1.36,1.45-1.31
			C317.07,271.51,317.45,272,317.48,272.81z"/>
		<path class="st1" d="M304.31,272.82c0.03-0.87,0.47-1.38,1.39-1.36c0.8,0.02,1.26,0.46,1.28,1.26c0.02,0.91-0.46,1.4-1.37,1.39
			C304.8,274.09,304.39,273.64,304.31,272.82z"/>
		<path class="st1" d="M295.56,271.45c0.8,0.01,1.31,0.38,1.38,1.17c0.07,0.88-0.34,1.44-1.27,1.48c-0.79,0.03-1.3-0.37-1.37-1.16
			C294.23,272.06,294.65,271.53,295.56,271.45z"/>
		<path class="st1" d="M331.61,269.11c-0.89-0.06-1.35-0.56-1.29-1.46c0.05-0.8,0.54-1.22,1.34-1.2c0.92,0.02,1.37,0.55,1.31,1.45
			C332.92,268.7,332.42,269.09,331.61,269.11z"/>
		<path class="st1" d="M322.5,267.7c-0.08,1.02-0.6,1.46-1.49,1.39c-0.8-0.06-1.21-0.56-1.18-1.35c0.03-0.92,0.58-1.35,1.47-1.29
			C322.11,266.51,322.45,267.04,322.5,267.7z"/>
		<path class="st1" d="M312.47,267.74c-0.03,0.87-0.47,1.38-1.39,1.36c-0.8-0.02-1.26-0.46-1.28-1.26c-0.02-0.91,0.46-1.4,1.37-1.39
			C311.98,266.47,312.4,266.92,312.47,267.74z"/>
		<path class="st1" d="M300.61,269.11c-0.89-0.06-1.35-0.56-1.29-1.46c0.05-0.8,0.54-1.22,1.34-1.2c0.92,0.02,1.37,0.55,1.31,1.45
			C301.92,268.7,301.42,269.09,300.61,269.11z"/>
		<path class="st1" d="M336.63,263.66c-0.89-0.06-1.35-0.56-1.29-1.46c0.05-0.8,0.54-1.22,1.34-1.2c0.92,0.02,1.37,0.55,1.31,1.45
			C337.93,263.24,337.44,263.63,336.63,263.66z"/>
		<path class="st1" d="M326.1,263.65c-0.91-0.09-1.33-0.63-1.25-1.51c0.07-0.8,0.59-1.19,1.38-1.15c0.93,0.05,1.34,0.62,1.26,1.5
			C327.42,263.29,326.9,263.65,326.1,263.65z"/>
		<path class="st1" d="M317.49,262.19c-0.05,1.01-0.52,1.49-1.43,1.45c-0.8-0.03-1.24-0.5-1.24-1.29c-0.01-0.92,0.5-1.38,1.41-1.35
			C317.04,261.02,317.41,261.52,317.49,262.19z"/>
		<path class="st1" d="M307,262.32c-0.11,1-0.66,1.41-1.54,1.31c-0.8-0.08-1.18-0.62-1.13-1.4c0.06-0.93,0.64-1.32,1.52-1.23
			C306.66,261.08,306.97,261.64,307,262.32z"/>
		<path class="st1" d="M331.65,258.65c-0.89-0.04-1.37-0.51-1.34-1.42c0.03-0.8,0.5-1.23,1.3-1.24c0.92-0.01,1.38,0.5,1.35,1.41
			C332.94,258.2,332.46,258.6,331.65,258.65z"/>
		<path class="st2" d="M338.04,315.04c-0.18,0.94-0.67,1.47-1.54,1.37c-0.74-0.08-1.23-0.6-1.18-1.37c0.06-0.87,0.62-1.36,1.49-1.28
			C337.58,313.83,337.93,314.4,338.04,315.04z"/>
		<path class="st2" d="M326.05,316.44c-0.81-0.19-1.33-0.68-1.19-1.56c0.11-0.74,0.64-1.21,1.42-1.12c0.86,0.1,1.35,0.67,1.22,1.54
			C327.38,316.04,326.85,316.43,326.05,316.44z"/>
		<path class="st2" d="M316.08,313.71c0.94,0.17,1.48,0.64,1.39,1.52c-0.07,0.74-0.59,1.23-1.36,1.19c-0.87-0.05-1.37-0.6-1.3-1.47
			C314.87,314.18,315.44,313.83,316.08,313.71z"/>
		<path class="st2" d="M307.02,314.9c-0.04,0.9-0.45,1.43-1.19,1.51c-0.87,0.1-1.43-0.4-1.5-1.26c-0.06-0.78,0.43-1.29,1.16-1.39
			C306.38,313.64,306.81,314.23,307.02,314.9z"/>
		<path class="st2" d="M296.98,315.17c-0.17,0.83-0.66,1.35-1.53,1.24c-0.74-0.09-1.22-0.61-1.16-1.39c0.07-0.87,0.64-1.36,1.5-1.26
			C296.53,313.85,296.95,314.38,296.98,315.17z"/>
		<path class="st2" d="M333,309.41c-0.02,0.89-0.41,1.43-1.15,1.53c-0.87,0.13-1.47-0.36-1.53-1.22c-0.07-0.87,0.46-1.4,1.34-1.43
			C332.45,308.27,332.81,308.83,333,309.41z"/>
		<path class="st2" d="M322.53,309.53c-0.14,0.94-0.59,1.49-1.48,1.43c-0.76-0.05-1.25-0.55-1.23-1.32
			c0.01-0.87,0.56-1.38,1.43-1.34C322.04,308.33,322.38,308.9,322.53,309.53z"/>
		<path class="st2" d="M311.06,308.27c0.79,0.05,1.31,0.46,1.39,1.2c0.09,0.87-0.41,1.43-1.28,1.49c-0.78,0.05-1.29-0.44-1.38-1.17
			C309.7,308.92,310.23,308.43,311.06,308.27z"/>
		<path class="st2" d="M302.02,309.53c-0.14,0.94-0.59,1.49-1.48,1.43c-0.76-0.05-1.25-0.55-1.23-1.32
			c0.01-0.87,0.56-1.38,1.43-1.34C301.52,308.33,301.86,308.9,302.02,309.53z"/>
		<path class="st2" d="M290.78,311c-0.95-0.08-1.51-0.52-1.51-1.4c0-0.76,0.49-1.27,1.25-1.3c0.88-0.04,1.4,0.49,1.41,1.36
			C291.95,310.45,291.39,310.81,290.78,311z"/>
		<path class="st2" d="M338.02,304.4c-0.02,0.9-0.41,1.43-1.15,1.54c-0.87,0.13-1.44-0.36-1.54-1.22c-0.09-0.77,0.39-1.29,1.13-1.42
			C337.35,303.16,337.78,303.74,338.02,304.4z"/>
		<path class="st2" d="M327.53,304.7c-0.17,0.83-0.66,1.35-1.53,1.25c-0.73-0.09-1.22-0.61-1.16-1.38c0.07-0.87,0.64-1.37,1.5-1.26
			C327.08,303.39,327.49,303.91,327.53,304.7z"/>
		<path class="st2" d="M314.78,304.71c0.04-0.79,0.45-1.32,1.19-1.4c0.87-0.1,1.43,0.4,1.5,1.26c0.06,0.78-0.43,1.29-1.16,1.39
			C315.44,306.06,314.95,305.53,314.78,304.71z"/>
		<path class="st2" d="M307.01,304.56c-0.05,0.79-0.46,1.31-1.2,1.39c-0.87,0.09-1.43-0.41-1.49-1.28
			c-0.05-0.78,0.44-1.29,1.17-1.37C306.37,303.2,306.86,303.73,307.01,304.56z"/>
		<path class="st2" d="M297,304.5c-0.09,0.88-0.5,1.4-1.25,1.46c-0.87,0.06-1.44-0.45-1.45-1.32c-0.01-0.87,0.55-1.38,1.43-1.34
			C296.5,303.33,296.85,303.9,297,304.5z"/>
		<path class="st2" d="M285.14,303.27c0.84,0.12,1.38,0.58,1.32,1.46c-0.05,0.75-0.55,1.24-1.32,1.23
			c-0.88-0.01-1.39-0.56-1.34-1.43C283.85,303.77,284.37,303.36,285.14,303.27z"/>
		<path class="st2" d="M331.69,298.26c0.83,0.15,1.37,0.62,1.28,1.5c-0.07,0.74-0.59,1.23-1.36,1.19c-0.87-0.05-1.38-0.6-1.3-1.47
			C330.38,298.73,330.91,298.33,331.69,298.26z"/>
		<path class="st2" d="M321.26,298.27c0.82,0.18,1.34,0.67,1.22,1.55c-0.1,0.73-0.63,1.21-1.4,1.14c-0.87-0.08-1.36-0.65-1.24-1.52
			C319.93,298.69,320.46,298.29,321.26,298.27z"/>
		<path class="st2" d="M312.49,299.7c-0.17,0.83-0.66,1.35-1.53,1.25c-0.73-0.09-1.22-0.61-1.16-1.38c0.07-0.87,0.64-1.37,1.5-1.26
			C312.04,298.38,312.45,298.91,312.49,299.7z"/>
		<path class="st2" d="M300.57,298.26c0.79,0.05,1.31,0.46,1.39,1.2c0.09,0.87-0.41,1.43-1.28,1.49c-0.78,0.05-1.29-0.44-1.38-1.17
			C299.21,298.91,299.74,298.42,300.57,298.26z"/>
		<path class="st2" d="M291.99,299.52c-0.14,0.94-0.59,1.49-1.48,1.43c-0.76-0.05-1.25-0.55-1.23-1.32
			c0.01-0.87,0.56-1.38,1.43-1.34C291.49,298.32,291.83,298.89,291.99,299.52z"/>
		<path class="st2" d="M280.04,300.98c-0.83-0.16-1.36-0.66-1.25-1.53c0.09-0.73,0.61-1.22,1.39-1.16c0.87,0.07,1.37,0.64,1.27,1.5
			C281.36,300.53,280.84,300.94,280.04,300.98z"/>
		<path class="st2" d="M336.44,292.81c0.89,0.02,1.43,0.41,1.54,1.15c0.13,0.87-0.36,1.46-1.22,1.53c-0.87,0.07-1.41-0.46-1.43-1.34
			C335.3,293.36,335.86,293,336.44,292.81z"/>
		<path class="st2" d="M326.14,295.54c-0.9-0.21-1.42-0.71-1.28-1.58c0.11-0.74,0.64-1.21,1.42-1.12c0.86,0.1,1.35,0.67,1.22,1.54
			C327.39,295.12,326.82,295.47,326.14,295.54z"/>
		<path class="st2" d="M316.15,292.79c0.92,0.2,1.44,0.69,1.32,1.57c-0.1,0.73-0.63,1.21-1.4,1.14c-0.87-0.08-1.35-0.65-1.24-1.52
			C314.91,293.22,315.48,292.87,316.15,292.79z"/>
		<path class="st2" d="M307.01,294.08c-0.04,0.79-0.45,1.32-1.19,1.4c-0.87,0.1-1.43-0.4-1.5-1.26c-0.06-0.78,0.43-1.29,1.16-1.39
			C306.36,292.73,306.85,293.26,307.01,294.08z"/>
		<path class="st2" d="M296.98,294.27c-0.18,0.82-0.67,1.34-1.55,1.22c-0.74-0.1-1.22-0.63-1.14-1.4c0.08-0.87,0.65-1.35,1.52-1.24
			C296.55,292.94,296.96,293.47,296.98,294.27z"/>
		<path class="st2" d="M286.5,294.15c-0.11,0.84-0.56,1.38-1.45,1.34c-0.76-0.04-1.25-0.54-1.25-1.3c0-0.87,0.54-1.39,1.41-1.36
			C285.99,292.86,286.39,293.38,286.5,294.15z"/>
		<path class="st2" d="M273.75,294.24c0.04-0.79,0.45-1.32,1.19-1.4c0.87-0.1,1.43,0.4,1.5,1.26c0.06,0.78-0.43,1.29-1.16,1.39
			C274.4,295.6,273.91,295.07,273.75,294.24z"/>
		<path class="st2" d="M331.52,290.51c-0.81-0.19-1.33-0.68-1.19-1.56c0.11-0.74,0.64-1.21,1.42-1.12c0.86,0.1,1.35,0.67,1.22,1.54
			C332.85,290.11,332.32,290.5,331.52,290.51z"/>
		<path class="st2" d="M321.05,287.8c0.79,0.01,1.32,0.41,1.43,1.15c0.13,0.87-0.36,1.46-1.22,1.53c-0.87,0.07-1.41-0.46-1.43-1.34
			C319.81,288.37,320.32,287.96,321.05,287.8z"/>
		<path class="st2" d="M312.49,289.19c-0.13,0.83-0.6,1.37-1.48,1.3c-0.75-0.06-1.24-0.57-1.21-1.34c0.03-0.87,0.58-1.38,1.45-1.32
			C312,287.89,312.41,288.41,312.49,289.19z"/>
		<path class="st2" d="M299.27,289.35c0.04-0.9,0.45-1.43,1.19-1.51c0.87-0.1,1.43,0.4,1.5,1.26c0.06,0.78-0.43,1.29-1.16,1.39
			C299.92,290.61,299.48,290.02,299.27,289.35z"/>
		<path class="st2" d="M290.5,287.8c0.79,0.01,1.32,0.41,1.43,1.15c0.13,0.87-0.36,1.46-1.22,1.53c-0.87,0.07-1.41-0.46-1.43-1.34
			C289.26,288.37,289.77,287.96,290.5,287.8z"/>
		<path class="st2" d="M280.19,290.52c-0.85-0.07-1.4-0.51-1.4-1.39c0-0.76,0.49-1.27,1.25-1.3c0.88-0.04,1.41,0.49,1.41,1.36
			C281.46,289.96,280.95,290.38,280.19,290.52z"/>
		<path class="st2" d="M336.76,282.34c0.82,0.18,1.34,0.67,1.22,1.55c-0.1,0.73-0.63,1.21-1.4,1.14c-0.87-0.08-1.36-0.65-1.24-1.52
			C335.43,282.77,335.97,282.37,336.76,282.34z"/>
		<path class="st2" d="M327.53,283.64c-0.07,0.84-0.51,1.4-1.39,1.39c-0.77,0-1.27-0.49-1.3-1.25c-0.04-0.87,0.49-1.41,1.36-1.41
			C326.97,282.37,327.39,282.88,327.53,283.64z"/>
		<path class="st2" d="M316.03,282.35c0.79,0.01,1.32,0.41,1.43,1.15c0.13,0.87-0.36,1.46-1.22,1.53c-0.87,0.07-1.41-0.46-1.43-1.34
			C314.79,282.92,315.3,282.5,316.03,282.35z"/>
		<path class="st2" d="M305.7,282.34c0.83,0.15,1.37,0.62,1.28,1.5c-0.07,0.74-0.59,1.23-1.36,1.19c-0.87-0.05-1.38-0.6-1.3-1.47
			C304.39,282.81,304.92,282.4,305.7,282.34z"/>
		<path class="st2" d="M297,283.74c-0.21,0.9-0.71,1.42-1.59,1.28c-0.74-0.11-1.21-0.64-1.12-1.41c0.1-0.86,0.67-1.34,1.54-1.22
			C296.59,282.49,296.93,283.05,297,283.74z"/>
		<path class="st2" d="M285.14,282.34c0.84,0.12,1.38,0.58,1.32,1.46c-0.05,0.75-0.55,1.24-1.32,1.23
			c-0.88-0.01-1.39-0.56-1.34-1.43C283.85,282.84,284.37,282.44,285.14,282.34z"/>
	</g>
	<circle class="st2" cx="119" cy="258" r="5"/>
	<g>
		<path class="st2" d="M207.57,23.33h-12.31c-0.6,0-1.09-0.49-1.09-1.09v0c0-0.6,0.49-1.09,1.09-1.09h12.31
			c0.6,0,1.09,0.49,1.09,1.09v0C208.66,22.84,208.17,23.33,207.57,23.33z"/>
		<path class="st2" d="M200.33,28.4V16.09c0-0.6,0.49-1.09,1.09-1.09l0,0c0.6,0,1.09,0.49,1.09,1.09V28.4c0,0.6-0.49,1.09-1.09,1.09
			l0,0C200.82,29.48,200.33,28.99,200.33,28.4z"/>
	</g>
	<path class="st2" d="M318.5,107L318.5,107c-1.92,0-3.5-1.57-3.5-3.5l0,0c0-1.93,1.58-3.5,3.5-3.5l0,0c1.92,0,3.5,1.57,3.5,3.5l0,0
		C322,105.43,320.42,107,318.5,107z"/>
	<path class="st2" d="M264.5,51L264.5,51c-5.23,0-9.5-4.27-9.5-9.5v0c0-5.22,4.27-9.5,9.5-9.5l0,0c5.23,0,9.5,4.27,9.5,9.5v0
		C274,46.73,269.73,51,264.5,51z"/>
	<path class="st2" d="M226,120L226,120c-1.65,0-3-1.35-3-3l0,0c0-1.65,1.35-3,3-3l0,0c1.65,0,3,1.35,3,3l0,0
		C229,118.65,227.65,120,226,120z"/>
	<g>
		<path class="st2" d="M278.11,136.72h-10.04c-0.49,0-0.89-0.4-0.89-0.89l0,0c0-0.49,0.4-0.89,0.89-0.89h10.04
			c0.49,0,0.89,0.4,0.89,0.89l0,0C279,136.32,278.6,136.72,278.11,136.72z"/>
		<path class="st2" d="M272.21,140.86v-10.04c0-0.49,0.4-0.89,0.89-0.89l0,0c0.49,0,0.89,0.4,0.89,0.89v10.04
			c0,0.49-0.4,0.89-0.89,0.89l0,0C272.61,141.74,272.21,141.34,272.21,140.86z"/>
	</g>
	<g>
		<circle class="st3" cx="259.03" cy="242.09" r="24.97"/>
		<line class="st4" x1="237.53" y1="230.59" x2="253.61" y2="221.96"/>
		<line class="st4" x1="235.19" y1="236.62" x2="250.68" y2="228.3"/>
		<line class="st4" x1="234.29" y1="241.87" x2="249.79" y2="233.55"/>
		<line class="st4" x1="236.21" y1="249.92" x2="248.53" y2="243.3"/>
		<line class="st4" x1="234.36" y1="246.48" x2="248.84" y2="238.7"/>
		<line class="st4" x1="238.24" y1="253.69" x2="249.15" y2="247.41"/>
		<line class="st4" x1="240.56" y1="258.02" x2="252.71" y2="250.97"/>
		<line class="st4" x1="244.33" y1="261.57" x2="258.06" y2="253.65"/>
		<line class="st4" x1="248.82" y1="264.74" x2="264.89" y2="256.1"/>
		<line class="st4" x1="256.19" y1="266.35" x2="272.27" y2="257.71"/>
	</g>
	<g>
		<path class="st2" d="M39.59,29.89H29.55c-0.49,0-0.89-0.4-0.89-0.89l0,0c0-0.49,0.4-0.89,0.89-0.89h10.04
			c0.49,0,0.89,0.4,0.89,0.89l0,0C40.48,29.49,40.08,29.89,39.59,29.89z"/>
		<path class="st2" d="M33.69,34.02V23.98c0-0.49,0.4-0.89,0.89-0.89h0c0.49,0,0.89,0.4,0.89,0.89v10.04c0,0.49-0.4,0.89-0.89,0.89
			h0C34.08,34.91,33.69,34.51,33.69,34.02z"/>
	</g>
	<circle class="st2" cx="86.5" cy="98.5" r="4.5"/>
	<circle class="st2" cx="112.5" cy="172.5" r="16.5"/>
	<g>
		<path class="st2" d="M64.73,232.23H52.42c-0.6,0-1.09-0.49-1.09-1.09l0,0c0-0.6,0.49-1.09,1.09-1.09h12.31
			c0.6,0,1.09,0.49,1.09,1.09l0,0C65.81,231.74,65.32,232.23,64.73,232.23z"/>
		<path class="st2" d="M57.49,237.3v-12.31c0-0.6,0.49-1.09,1.09-1.09h0c0.6,0,1.09,0.49,1.09,1.09v12.31c0,0.6-0.49,1.09-1.09,1.09
			h0C57.97,238.38,57.49,237.9,57.49,237.3z"/>
	</g>
	<path class="st2" d="M138,63L138,63c-1.65,0-3-1.35-3-3v0c0-1.65,1.35-3,3-3l0,0c1.65,0,3,1.35,3,3v0C141,61.65,139.65,63,138,63z"
		/>
	<path class="st2" d="M161,295L161,295c-1.65,0-3-1.35-3-3l0,0c0-1.65,1.35-3,3-3l0,0c1.65,0,3,1.35,3,3l0,0
		C164,293.65,162.65,295,161,295z"/>
	<g>
		<path class="st2" d="M186.59,218.17h-10.04c-0.49,0-0.89-0.4-0.89-0.89l0,0c0-0.49,0.4-0.89,0.89-0.89h10.04
			c0.49,0,0.89,0.4,0.89,0.89l0,0C187.48,217.77,187.08,218.17,186.59,218.17z"/>
		<path class="st2" d="M180.69,222.31v-10.04c0-0.49,0.4-0.89,0.89-0.89l0,0c0.49,0,0.89,0.4,0.89,0.89v10.04
			c0,0.49-0.4,0.89-0.89,0.89l0,0C181.08,223.19,180.69,222.79,180.69,222.31z"/>
	</g>
	<g>
		<path class="st5" d="M42.92,122.97c-10.6-10.61-24.71-16.46-39.71-16.47c-0.01,0-0.02,0-0.02,0c-1.07,0-2.13,0.04-3.19,0.1v3.01
			c1.06-0.06,2.12-0.1,3.19-0.1c0.01,0,0.02,0,0.02,0c14.2,0.01,27.55,5.54,37.59,15.59c10.04,10.05,15.56,23.4,15.56,37.6
			s-5.54,27.55-15.59,37.59c-10.04,10.03-23.39,15.56-37.58,15.56c-0.01,0-0.02,0-0.02,0c-1.06,0-2.12-0.04-3.17-0.1v3.01
			c1.05,0.06,2.1,0.1,3.16,0.1c0.01,0,0.02,0,0.02,0c14.99,0,29.09-5.84,39.7-16.44c10.61-10.6,16.46-24.71,16.47-39.71
			C59.36,147.69,53.53,133.58,42.92,122.97z"/>
		<path class="st2" d="M3.2,131.15c-1.08,0-2.15,0.05-3.2,0.16v62.71c1.04,0.1,2.1,0.16,3.17,0.16c17.41,0.01,31.52-14.1,31.53-31.5
			C34.71,145.28,20.61,131.16,3.2,131.15z"/>
	</g>
	<g>
		<circle class="st2" cx="49" cy="68" r="6"/>
		<path class="st2" d="M108.72,0L52.36,56.36c-0.39,0.39-0.39,1.02,0,1.41c0.2,0.2,0.45,0.29,0.71,0.29s0.51-0.1,0.71-0.29L111.55,0
			H108.72z"/>
		<path class="st2" d="M122.59,0L59.29,63.29c-0.39,0.39-0.39,1.02,0,1.41C59.49,64.9,59.75,65,60,65s0.51-0.1,0.71-0.29L125.41,0
			H122.59z"/>
		<path class="st2" d="M115.67,0L59,56.75c-0.39,0.39-0.39,1.02,0,1.41c0.2,0.19,0.45,0.29,0.71,0.29c0.26,0,0.51-0.1,0.71-0.29
			L118.5,0H115.67z"/>
	</g>
	<g>
		<circle class="st2" cx="284.6" cy="75.73" r="3.16"/>
		<circle class="st2" cx="273.88" cy="86.45" r="5"/>
		<path class="st2" d="M340,15.38l-50.57,50.57c-1.36,1.36-1.36,3.59,0,4.95c1.36,1.36,3.59,1.36,4.95,0L340,25.28V15.38z"/>
	</g>
	<g>
		<circle class="st2" cx="289" cy="189" r="4"/>
		<path class="st2" d="M340,133.05l-45.35,45.35c-1.36,1.36-1.36,3.59,0,4.95c1.36,1.36,3.59,1.36,4.95,0l40.4-40.4V133.05z"/>
	</g>
	<g>
		<path class="st5" d="M37.41,319c-0.66-2.66-1.02-5.44-1.02-8.3c0-19.05,15.5-34.55,34.55-34.55s34.55,15.5,34.55,34.55
			c0,2.86-0.36,5.64-1.02,8.3h3.08c0.61-2.67,0.94-5.45,0.94-8.3c0-20.71-16.85-37.55-37.55-37.55s-37.55,16.85-37.55,37.55
			c0,2.85,0.33,5.63,0.94,8.3H37.41z"/>
		<path class="st2" d="M89.99,319c1.11-2.54,1.74-5.35,1.74-8.3c0-11.48-9.31-20.78-20.78-20.78s-20.78,9.31-20.78,20.78
			c0,2.95,0.63,5.76,1.74,8.3H89.99z"/>
	</g>
</g>
</svg>
