<?xml version="1.0" encoding="utf-8"?>
<svg version="1.1" xmlns:xlink="http://www.w3.org/1999/xlink" width="20px" height="20px" xmlns="http://www.w3.org/2000/svg">
  <g transform="matrix(1 0 0 1 -280 -592 )">
    <path d="M 8.13775510204082 18.2890625  C 8.12925170068027 18.3463541666667  8.13775510204082 18.4166666666667  8.16326530612245 18.5  C 8.16326530612245 18.5416666666667  8.16751700680272 18.6458333333333  8.17602040816326 18.8125  C 8.18452380952381 18.9791666666667  8.18664965986395 19.1171875  8.18239795918367 19.2265625  C 8.1781462585034 19.3359375  8.16539115646259 19.4583333333333  8.14413265306122 19.59375  C 8.12287414965986 19.7291666666667  8.08035714285714 19.8307291666667  8.01658163265306 19.8984375  C 7.95280612244898 19.9661458333333  7.8656462585034 20  7.75510204081633 20  L 3.6734693877551 20  C 2.66156462585034 20  1.79634353741497 19.5598958333333  1.07780612244898 18.6796875  C 0.359268707482993 17.7994791666667  0 16.7395833333333  0 15.5  L 0 4.5  C 0 3.26041666666666  0.359268707482993 2.20052083333333  1.07780612244898 1.3203125  C 1.79634353741497 0.440104166666664  2.66156462585034 0  3.6734693877551 0  L 7.75510204081633 0  C 7.8656462585034 0  7.96130952380952 0.0494791666666639  8.04209183673469 0.1484375  C 8.12287414965986 0.247395833333333  8.16326530612245 0.364583333333333  8.16326530612245 0.5  C 8.16326530612245 0.541666666666665  8.16751700680272 0.645833333333332  8.17602040816326 0.8125  C 8.18452380952381 0.979166666666664  8.18664965986395 1.1171875  8.18239795918367 1.2265625  C 8.1781462585034 1.3359375  8.16539115646259 1.45833333333333  8.14413265306122 1.59375  C 8.12287414965986 1.72916666666666  8.08035714285714 1.83072916666666  8.01658163265306 1.8984375  C 7.95280612244898 1.96614583333333  7.8656462585034 2  7.75510204081633 2  L 3.6734693877551 2  C 3.11224489795918 2  2.63180272108844 2.24479166666666  2.23214285714286 2.734375  C 1.83248299319728 3.22395833333333  1.63265306122449 3.8125  2 4.5  L 2 15.5  C 1.63265306122449 16.1875  1.83248299319728 16.7760416666667  2.23214285714286 17.265625  C 2.63180272108844 17.7552083333333  3.11224489795918 18  3.6734693877551 18  L 7.3469387755102 18  L 7.48724489795918 18  L 7.6530612244898 18  C 7.6530612244898 18  7.70195578231293 18.0052083333333  7.79974489795918 18.015625  C 7.89753401360544 18.0260416666667  7.94642857142857 18.0416666666667  7.94642857142857 18.0625  C 7.94642857142857 18.0833333333333  7.98044217687075 18.1119791666667  8.0484693877551 18.1484375  C 8.11649659863946 18.1848958333333  8.14625850340136 18.2317708333333  8.13775510204082 18.2890625  Z M 19.7576530612245 9.296875  C 19.9192176870748 9.49479166666667  20 9.72916666666667  20 10  C 20 10.2708333333333  19.9192176870748 10.5052083333333  19.7576530612245 10.703125  L 12.8188775510204 19.203125  C 12.6573129251701 19.4010416666667  12.4659863945578 19.5  12.2448979591837 19.5  C 12.0238095238095 19.5  11.8324829931973 19.4010416666667  11.6709183673469 19.203125  C 11.5093537414966 19.0052083333333  11.4285714285714 18.7708333333333  11.4285714285714 18.5  L 11.4285714285714 14  L 5.71428571428571 14  C 5.49319727891156 14  5.30187074829932 13.9010416666667  5.14030612244898 13.703125  C 4.97874149659864 13.5052083333333  4.89795918367347 13.2708333333333  4.89795918367347 13  L 4.89795918367347 7  C 4.89795918367347 6.72916666666666  4.97874149659864 6.49479166666666  5.14030612244898 6.296875  C 5.30187074829932 6.09895833333333  5.49319727891156 6  5.71428571428571 6  L 11.4285714285714 6  L 11.4285714285714 1.5  C 11.4285714285714 1.22916666666666  11.5093537414966 0.994791666666663  11.6709183673469 0.796874999999999  C 11.8324829931973 0.598958333333333  12.0238095238095 0.5  12.2448979591837 0.5  C 12.4659863945578 0.5  12.6573129251701 0.598958333333333  12.8188775510204 0.796874999999999  L 19.7576530612245 9.296875  Z " fill-rule="nonzero" fill="#7f7f7f" stroke="none" transform="matrix(1 0 0 1 280 592 )" />
  </g>
</svg>