<?xml version="1.0" encoding="utf-8"?>
<!-- Generator: Adobe Illustrator 19.0.0, SVG Export Plug-In . SVG Version: 6.00 Build 0)  -->
<svg version="1.1" id="Layer_1" xmlns="http://www.w3.org/2000/svg" xmlns:xlink="http://www.w3.org/1999/xlink" x="0px" y="0px"
	 viewBox="0 0 122.8 107.5" style="enable-background:new 0 0 122.8 107.5;" xml:space="preserve">
<style type="text/css">
	.st0{fill:#71B9E7;}
</style>
<rect id="XMLID_302_" x="52.9" y="9.8" class="st0" width="18.2" height="4.5"/>
<path id="XMLID_301_" class="st0" d="M93.7,21.6H29.9c-2.2,0-3.6-1.3-3.6-3c0-1.7,1.3-3,3.6-3h63.8c2.2,0,3.5,1.3,3.5,3
	C97.2,20.3,95.9,21.6,93.7,21.6z"/>
<rect id="XMLID_300_" x="67.5" y="30.6" class="st0" width="6" height="38"/>
<rect id="XMLID_299_" x="48.5" y="30.6" class="st0" width="6" height="38"/>
<path id="XMLID_304_" class="st0" d="M74.8,97.9H49.3c-10.6,0-19.1-8.6-19.1-19.1V26.9h6v51.9c0,7.2,5.9,13.1,13.1,13.1h25.5
	c7.2,0,13.1-5.9,13.1-13.1V26.9h6v51.9C94,89.3,85.4,97.9,74.8,97.9z"/>
<g id="XMLID_63_">
</g>
<g id="XMLID_65_">
</g>
<g id="XMLID_66_">
</g>
<g id="XMLID_67_">
</g>
<g id="XMLID_69_">
</g>
<g id="XMLID_70_">
</g>
</svg>
