<?xml version="1.0" encoding="utf-8"?>
<!-- Generator: Adobe Illustrator 24.0.1, SVG Export Plug-In . SVG Version: 6.00 Build 0)  -->
<svg version="1.1" id="Camada_1" xmlns="http://www.w3.org/2000/svg" xmlns:xlink="http://www.w3.org/1999/xlink" x="0px" y="0px"
	 viewBox="0 0 80 80" style="enable-background:new 0 0 80 80;" xml:space="preserve">
<style type="text/css">
	.st0{fill:none;}
	.st1{fill:#FFFFFF;}
	.st2{fill:#1875EF;}
</style>
<g id="Background">
</g>
<g>
	<path class="st0" d="M61.4,44.3C59,43.2,56.5,43,54,43C56.5,43,59,43.2,61.4,44.3c5.7,2.5,8.9,6.8,9.9,13.1h0
		C70.3,51.1,67.1,46.7,61.4,44.3z"/>
	<path class="st0" d="M35.8,57.4c3,0,5.9,0,8.9,0C41.7,57.4,38.7,57.4,35.8,57.4L35.8,57.4z"/>
	<path d="M75,58.5c-0.6-8.2-4.6-14.1-12.1-17.5c-3.6-1.6-7.3-1.5-11.1-1.5c-10.6,0.1-19.2,8.2-19.7,18.8C32,60.3,32.7,61,34.6,61
		c6.3,0,12.5,0,18.8,0c6.4,0,12.8,0,19.2,0C74.4,61,75.1,60.3,75,58.5z M71.3,57.4c-8.9,0-17.8,0-26.6,0c-3,0-5.9,0-8.9,0l0,0h0
		c0.5-4.2,2.3-7.5,5.3-10.2c2.7-2.4,5.8-3.8,9.4-4c1.1-0.1,2.3-0.1,3.5-0.2c2.5,0,5,0.2,7.4,1.3C67.1,46.7,70.3,51.1,71.3,57.4
		C71.3,57.4,71.3,57.4,71.3,57.4z"/>
	<path class="st1" d="M61.4,44.3C59,43.2,56.5,43,54,43c-1.1,0-2.3,0.1-3.5,0.2c-3.6,0.2-6.7,1.6-9.4,4c-3.1,2.7-4.9,6.1-5.3,10.2h0
		c3,0,5.9,0,8.9,0c8.9,0,17.7,0,26.6,0C70.3,51.1,67.1,46.7,61.4,44.3z"/>
</g>
<g>
	<path class="st2" d="M60.3,16.8c-1.8-1.8-4.2-2.9-6.6-2.9c0,0-0.1,0-0.1,0c-2.4,0-4.7,0.9-6.5,2.7c-1.8,1.8-2.8,4.1-2.8,6.5
		c-0.1,5.1,4.1,9.3,9.2,9.4c2.4,0.1,4.6-0.8,6.4-2.6c1.8-1.8,2.9-4.2,3-6.7C62.9,20.9,62,18.6,60.3,16.8z"/>
	<path d="M62.9,14.3c-2.4-2.5-5.7-3.9-9.1-4c-3.4-0.1-6.6,1.3-9.1,3.7c-2.5,2.4-3.9,5.6-3.9,9c-0.1,7,5.6,12.9,12.7,13
		c0.1,0,0.2,0,0.3,0c3.2,0,6.3-1.3,8.7-3.6c2.5-2.4,4-5.7,4.1-9.2C66.5,20,65.3,16.8,62.9,14.3z M53.5,32.5
		c-5.2-0.1-9.3-4.4-9.2-9.4c0-2.5,1-4.8,2.8-6.5c1.8-1.7,4.1-2.7,6.5-2.7c0,0,0.1,0,0.1,0c2.5,0,4.9,1.1,6.6,2.9
		c1.7,1.8,2.7,4.1,2.6,6.5c-0.1,2.5-1.1,4.9-3,6.7C58.1,31.6,55.8,32.5,53.5,32.5z"/>
</g>
<g>
	<path class="st0" d="M8.7,66.1c3,0,5.9,0,8.9,0C14.6,66.1,11.7,66.1,8.7,66.1L8.7,66.1z"/>
	<path class="st0" d="M34.3,53c-2.4-1-4.9-1.3-7.4-1.3C29.4,51.7,31.9,52,34.3,53c5.7,2.5,8.9,6.8,9.9,13.1h0
		C43.3,59.8,40,55.5,34.3,53z"/>
	<path d="M47.9,67.2c-0.6-8.2-4.6-14.1-12.1-17.5c-3.6-1.6-7.3-1.5-11.1-1.5C14.1,48.4,5.5,56.5,5,67.1c-0.1,1.9,0.6,2.6,2.5,2.6
		c6.3,0,12.5,0,18.8,0c6.4,0,12.8,0,19.2,0C47.3,69.7,48,69,47.9,67.2z M44.3,66.1c-8.9,0-17.8,0-26.7,0c-3,0-5.9,0-8.9,0l0,0h0
		c0.5-4.2,2.3-7.5,5.3-10.2c2.7-2.4,5.8-3.8,9.4-4c1.1-0.1,2.3-0.1,3.5-0.2c2.5,0,5,0.2,7.4,1.3C40,55.5,43.3,59.8,44.3,66.1
		L44.3,66.1z"/>
	<path class="st1" d="M34.3,53c-2.4-1-4.9-1.3-7.4-1.3c-1.1,0-2.3,0.1-3.5,0.2c-3.6,0.2-6.7,1.6-9.4,4c-3.1,2.7-4.9,6.1-5.3,10.2h0
		c3,0,5.9,0,8.9,0c8.9,0,17.7,0,26.7,0C43.2,59.8,40,55.5,34.3,53z"/>
</g>
<g>
	<path class="st2" d="M33.2,25.5c-1.8-1.8-4.2-2.9-6.6-2.9c0,0-0.1,0-0.1,0c-5,0-9.2,4.2-9.3,9.2c-0.1,5.1,4.1,9.3,9.2,9.4
		c2.4,0.1,4.6-0.8,6.4-2.6c1.8-1.8,2.9-4.2,3-6.7C35.9,29.6,34.9,27.3,33.2,25.5z"/>
	<path d="M35.8,23c-2.4-2.5-5.7-3.9-9.1-4c-3.4,0-6.6,1.3-9.1,3.7c-2.5,2.4-3.9,5.6-3.9,9c-0.1,7,5.6,12.9,12.7,13
		c0.1,0,0.2,0,0.3,0c3.2,0,6.3-1.3,8.7-3.6c2.5-2.4,4-5.7,4.1-9.2C39.4,28.7,38.2,25.5,35.8,23z M26.4,41.2
		c-5.2-0.1-9.3-4.4-9.2-9.4c0.1-5,4.3-9.2,9.3-9.2c0,0,0.1,0,0.1,0c2.5,0,4.9,1.1,6.6,2.9c1.7,1.8,2.7,4.1,2.6,6.5
		c-0.1,2.5-1.1,4.9-3,6.7C31,40.3,28.8,41.2,26.4,41.2z"/>
</g>
</svg>
