<?xml version="1.0" encoding="utf-8"?>
<!-- Generator: Adobe Illustrator 24.0.1, SVG Export Plug-In . SVG Version: 6.00 Build 0)  -->
<svg version="1.1" id="Camada_1" xmlns="http://www.w3.org/2000/svg" xmlns:xlink="http://www.w3.org/1999/xlink" x="0px" y="0px"
	 viewBox="0 0 357 359" style="enable-background:new 0 0 357 359;" xml:space="preserve">
<style type="text/css">
	.st0{fill:#FFFFFF;}
	.st1{fill:#2E58FF;}
	.st2{fill:#D1E7FF;}
	.st3{fill:#B9DCFF;}
	.st4{fill:#E8F3FF;}
	.st5{fill:#A2D0FF;}
</style>
<g>
	<circle class="st0" cx="178.5" cy="179.5" r="167"/>
	<path class="st1" d="M178.5,351.5c-94.8,0-172-77.2-172-172c0-94.8,77.2-172,172-172c94.8,0,172,77.2,172,172
		C350.5,274.3,273.3,351.5,178.5,351.5z M178.5,17.5c-89.3,0-162,72.7-162,162s72.7,162,162,162s162-72.7,162-162
		S267.8,17.5,178.5,17.5z"/>
</g>
<g id="Back">
</g>
<g>
	<path class="st2" d="M253.2,265v18.2c0,2-1.7,3.7-3.7,3.7H114.3c-2,0-3.7-1.7-3.7-3.7V265c0-19.1,15.5-34.5,34.5-34.5
		c6.7,0,12.7-3.5,16.1-8.7c3.4-5.3,3.1-9.9,3.1-13.6l0.1-0.2c-16.6-6.9-28.3-23.3-28.3-42.4v-1.4c-6.6,0-11.6-5.2-11.6-11.4v-19.2
		c-0.1-6.7,0.2-30.3,17.2-46.8c19.8-19.1,51.3-17.6,74.1-7.3c0.7,0.3,0.7,1.4,0,1.7l-5.9,2.4c-0.9,0.4-0.7,1.7,0.3,1.8l2.9,0.3
		c13.8,1.5,26.6,9,34.6,21.5c0.2,0.3,0.2,0.9-0.1,1.1c-4.9,5.2-7.6,12.1-7.6,19.2v25.3c0,6.3-5.1,11.4-11.4,11.4h-0.7v1.4
		c0,19.1-11.7,35.5-28.3,42.4l0.1,0.2c0,3.6-0.4,8.3,3.1,13.6c3.4,5.3,9.4,8.7,16.1,8.7C237.7,230.5,253.2,246,253.2,265L253.2,265z
		"/>
	<path class="st3" d="M253.2,265v18.2c0,2-1.7,3.7-3.7,3.7H114.3c-2,0-3.7-1.7-3.7-3.7V265c0-19.1,15.5-34.5,34.5-34.5
		c6.7,0,12.7-3.5,16.1-8.7c11.9,10.2,29.4,10.2,41.3,0c3.4,5.3,9.4,8.7,16.1,8.7C237.7,230.5,253.2,246,253.2,265L253.2,265z"/>
	<path class="st3" d="M247.5,107.2c0.2,0.3,0.2,0.8-0.1,1.1c-4.9,5.2-7.6,12.1-7.6,19.2v25.3c0,5.7-4.3,11.4-12,11.4v-28.6
		c0-12.3-9.9-22.2-22.2-22.2h-47.2c-12.3,0-22.2,9.9-22.2,22.2v28.6c-6.6,0-11.6-5.2-11.6-11.4v-19.2c-0.1-6.7,0.2-30.3,17.2-46.8
		c19.8-19.1,51.3-17.6,74.1-7.3c0.7,0.3,0.7,1.4,0,1.7l-5.9,2.4c-0.9,0.4-0.7,1.7,0.3,1.8l2.9,0.3
		C226.8,87.2,239.6,94.7,247.5,107.2z"/>
	<path class="st2" d="M227.7,165.7c0,25.3-20.5,45.8-45.8,45.8c-23.8,0-45.8-18.5-45.8-47.3v-28.6c0-12.3,9.9-22.2,22.2-22.2h47.2
		c12.3,0,22.2,9.9,22.2,22.2L227.7,165.7L227.7,165.7z"/>
	<path class="st4" d="M171.5,195.3c7.5,4.7,1.6,16.3-6.7,13c-17-6.8-28.8-23.3-28.8-42.6v-30c0-4.7,1.4-9,3.9-12.6
		c3-4.4,10-2.4,10,3.3v30C150,173.3,158.8,187.3,171.5,195.3L171.5,195.3z"/>
	<path class="st3" d="M200,215.8c-11.4,4.8-23.9,5.1-36.2,0c0.6-2.6,0.5-4.3,0.5-7.6l0.1-0.2c11.1,4.6,23.9,4.6,35,0l0.1,0.2
		C199.5,211.5,199.4,213.2,200,215.8L200,215.8z"/>
	<path class="st2" d="M163.8,241.7c-1.7,0.5-3.5,0.8-5.5,0.9c-19.1,0.2-34.7,15.3-34.7,34.4v3.5c0,3.6-2.9,6.5-6.5,6.5h-2.8
		c-2,0-3.7-1.7-3.7-3.7V265c0-19.1,15.5-34.5,34.5-34.5c6.7,0,12.7-3.5,16.1-8.7c1.4,1.2,2.9,2.2,4.4,3.2
		C172.5,229,171.4,239.3,163.8,241.7L163.8,241.7z"/>
	<path class="st5" d="M200,241.7c1.7,0.5,3.5,0.8,5.5,0.9c19.1,0.2,34.7,15.3,34.7,34.4v3.5c0,3.6,2.9,6.5,6.5,6.5h2.8
		c2,0,3.7-1.7,3.7-3.7V265c0-19.1-15.5-34.5-34.5-34.5c-6.7,0-12.7-3.5-16.1-8.7c-1.4,1.2-2.9,2.2-4.4,3.2
		C191.3,229,192.4,239.3,200,241.7L200,241.7z"/>
	<path class="st2" d="M215.7,81.2c-5.4,2.2-6.2,2.7-8.1,2.4c-30.4-4.7-57.1,7.9-66.1,37.4l0,0c-3.4,3.9-5.4,9-5.4,14.6V153
		c0,7.5-11.6,8-11.6-0.1v-19.2c-0.1-6.7,0.2-30.3,17.2-46.8c19.8-19.1,51.3-17.6,74.1-7.3C216.5,79.9,216.5,80.9,215.7,81.2
		L215.7,81.2z"/>
	<path class="st1" d="M256.9,265v21.9c0,2-1.7,3.7-3.7,3.7s-3.7-1.7-3.7-3.7V265c0-17-13.8-30.8-30.8-30.8c-8.1,0-15.4-4.1-19.6-11
		c-1.1-1.7-0.5-4,1.2-5.1s4-0.5,5.1,1.2c2.8,4.7,7.8,7.4,13.2,7.4C239.8,226.8,256.9,243.9,256.9,265L256.9,265z M192.3,227.9
		c0.4,2-0.8,4-2.8,4.4c-9.7,2.1-19.7,0-27.6-5.4c-7.8,8.4-18.1,7.3-16.8,7.3c-17,0-30.8,13.8-30.8,30.8v21.9c0,2-1.7,3.7-3.7,3.7
		s-3.7-1.7-3.7-3.7V265c0-21.1,17.1-38.2,38.2-38.2c8.5,0,15.5-6.9,15.5-15.4v-1c-16.2-7.7-27.5-24-28.2-42.9
		c-6.7-1.6-11.6-7.6-11.6-14.6v-19.2c-0.2-9.4,1.2-32.9,18.4-49.5c21.2-20.4,55.2-19.1,80.2-7.1c2.4,1.2,2.8,4.5,0.8,6.2
		c12.7,3.1,23.6,10.9,30.6,22c0.4,0.6,1,1.5,0.9,2.9c-0.1,0.9-0.4,1.7-1.1,2.3c-4.5,4.6-7,10.6-7,17.1v25.3c0,2-1.7,3.7-3.7,3.7
		s-3.7-1.7-3.7-3.7v-25.3c0-7.4,2.5-14.5,7.2-20.1c-7.1-10.2-18.2-16.7-30.7-18l-6.5-0.7c-3.8-0.4-4.6-5.7-1-7.1l3-1.2
		c-38.6-13.4-79.8,1.5-79.8,53.2v19.2c0,2.9,1.7,5.5,4.2,6.8v-24c0-14.3,11.6-25.9,25.9-25.9h47.2c14.3,0,25.9,11.6,25.9,25.9V166
		c0,32.2-31.5,56.7-63.5,47.2c-0.2,2.6-0.9,5.2-1.9,7.6c6.2,4.3,14.1,6,21.9,4.3C189.9,224.7,191.8,225.9,192.3,227.9L192.3,227.9z
		 M181.9,207.8c23.2,0,42.1-18.9,42.1-42.1v-30c0-10.2-8.3-18.5-18.5-18.5h-47.2c-10.2,0-18.5,8.3-18.5,18.5v30
		C139.8,188.9,158.7,207.8,181.9,207.8L181.9,207.8z M219.4,271.6h-11.1c-2,0-3.7,1.7-3.7,3.7s1.7,3.7,3.7,3.7h11.1
		c2,0,3.7-1.7,3.7-3.7C223.1,273.3,221.4,271.6,219.4,271.6z"/>
</g>
</svg>
