<?xml version="1.0" encoding="utf-8"?>
<svg version="1.1" xmlns:xlink="http://www.w3.org/1999/xlink" width="90px" height="60px" xmlns="http://www.w3.org/2000/svg">
  <g transform="matrix(1 0 0 1 -38 -457 )">
    <path d="M 7.5 0  L 82.5 0  C 84.5625 0  86.328125 0.611979166666661  87.796875 1.8359375  C 89.265625 3.05989583333333  90 4.53125  90 6.25  L 90 53.75  C 90 55.46875  89.265625 56.9401041666667  87.796875 58.1640625  C 86.328125 59.3880208333333  84.5625 60  82.5 60  L 7.5 60  C 5.4375 60  3.671875 59.3880208333333  2.203125 58.1640625  C 0.734375 56.9401041666667  0 55.46875  0 53.75  L 0 6.25  C 0 4.53125  0.734375 3.05989583333333  2.203125 1.8359375  C 3.671875 0.611979166666661  5.4375 0  7.5 0  Z M 82.5 5  L 7.5 5  C 7.09375 5  6.7421875 5.12369791666666  6.4453125 5.37109375  C 6.1484375 5.61848958333333  6 5.91145833333333  6 6.25  L 6 15  L 84 15  L 84 6.25  C 84 5.91145833333333  83.8515625 5.61848958333333  83.5546875 5.37109375  C 83.2578125 5.12369791666666  82.90625 5  82.5 5  Z M 7.5 55  L 82.5 55  C 82.90625 55  83.2578125 54.8763020833333  83.5546875 54.62890625  C 83.8515625 54.3815104166667  84 54.0885416666667  84 53.75  L 84 30  L 6 30  L 6 53.75  C 6 54.0885416666667  6.1484375 54.3815104166667  6.4453125 54.62890625  C 6.7421875 54.8763020833333  7.09375 55  7.5 55  Z M 24 50  L 12 50  L 12 45  L 24 45  L 24 50  Z M 48 50  L 30 50  L 30 45  L 48 45  L 48 50  Z " fill-rule="nonzero" fill="#7f7f7f" stroke="none" transform="matrix(1 0 0 1 38 457 )" />
  </g>
</svg>