<?xml version="1.0" encoding="utf-8"?>
<!-- Generator: Adobe Illustrator 24.0.1, SVG Export Plug-In . SVG Version: 6.00 Build 0)  -->
<svg version="1.1" id="Camada_1" xmlns="http://www.w3.org/2000/svg" xmlns:xlink="http://www.w3.org/1999/xlink" x="0px" y="0px"
	 viewBox="0 0 74.4 81.2" style="enable-background:new 0 0 74.4 81.2;" xml:space="preserve">
<style type="text/css">
	.st0{display:none;}
	.st1{display:inline;}
	.st2{fill:#FFFFFF;}
</style>
<g id="Layer_1" class="st0">
	<g id="XMLID_3_" class="st1">
		<path id="XMLID_4_" d="M57.1,50.7c0,3-0.8,5.8-2.3,8.2c-1.6,2.4-3.8,4.3-6.9,5.7c-3.1,1.4-6.6,2.1-10.7,2.1c-4.9,0-9-0.9-12.2-2.8
			c-2.3-1.3-4.1-3.1-5.6-5.4c-1.4-2.2-2.1-4.4-2.1-6.5c0-1.2,0.4-2.3,1.3-3.2s1.9-1.3,3.3-1.3c1.1,0,2,0.3,2.7,1s1.4,1.7,1.9,3
			c0.6,1.6,1.3,2.9,2.1,4c0.7,1.1,1.8,2,3.1,2.6s3.1,1,5.3,1c3,0,5.5-0.7,7.3-2.1c1.9-1.4,2.8-3.1,2.8-5.2c0-1.7-0.5-3-1.5-4.1
			c-1-1-2.3-1.8-3.9-2.4c-1.6-0.5-3.8-1.1-6.4-1.7c-3.6-0.8-6.6-1.8-9-3s-4.4-2.7-5.8-4.6c-1.5-1.9-2.3-4.3-2.3-7.2
			c0-2.8,0.8-5.2,2.3-7.3c1.5-2.1,3.7-3.8,6.5-4.9c2.8-1.2,6.2-1.7,10-1.7c3.1,0,5.7,0.4,8,1.1c2.2,0.8,4.1,1.8,5.6,3
			c1.5,1.3,2.6,2.6,3.2,4c0.7,1.4,1,2.7,1,4.1c0,1.2-0.4,2.3-1.3,3.3s-1.9,1.5-3.2,1.5c-1.2,0-2-0.3-2.6-0.9s-1.3-1.5-2-2.9
			c-0.9-1.9-2-3.4-3.3-4.4c-1.3-1.1-3.3-1.6-6.2-1.6c-2.6,0-4.7,0.6-6.3,1.7c-1.6,1.2-2.4,2.5-2.4,4.2c0,1,0.3,1.9,0.8,2.6
			c0.5,0.7,1.3,1.4,2.3,1.9s1.9,0.9,2.9,1.2s2.6,0.7,4.9,1.3c2.8,0.7,5.4,1.4,7.7,2.2s4.2,1.8,5.8,2.9c1.6,1.1,2.9,2.6,3.8,4.3
			C56.7,46,57.1,48.2,57.1,50.7z"/>
	</g>
	<path id="XMLID_2_" class="st1" d="M37.2,73.7L37.2,73.7c-1.9,0-3.5-1.6-3.5-3.5v-59c0-1.9,1.6-3.5,3.5-3.5l0,0
		c1.9,0,3.5,1.6,3.5,3.5v59C40.7,72.1,39.1,73.7,37.2,73.7z"/>
</g>
<g id="Layer_2">
	<g id="XMLID_6_">
		<path id="XMLID_25_" class="st2" d="M31.3,0.2c0.4,0,0.9,0.1,1.3,0.1c2.8,0.3,5.4,1.3,7.7,2.9c2.5,1.7,4.4,3.8,5.9,6.4
			c1,1.7,1.6,3.5,1.9,5.4c0.4,2.8,0.3,5.5-0.5,8.3c-0.6,2-1.5,3.9-2.8,5.5c-1.6,2.1-3.6,3.8-5.9,5.1c-1.8,1-3.7,1.6-5.7,1.9
			c-3,0.4-6,0.3-8.9-0.7c-2.5-0.8-4.7-2.2-6.6-4.1c-2.2-2.1-3.9-4.6-4.8-7.6c-0.7-2.3-0.9-4.6-0.7-6.9c0.2-2.1,0.6-4.1,1.5-6
			c0.9-2,2.2-3.7,3.7-5.3c1.7-1.6,3.6-3,5.7-3.9c1.8-0.8,3.7-1.2,5.7-1.3c0.1,0,0.2,0,0.4,0C29.9,0.2,30.6,0.2,31.3,0.2z"/>
		<path id="XMLID_10_" class="st2" d="M46.4,81.2c-1.6,0-2.9-1-3.3-2.5C42.4,76,40,68.6,34.3,57.8c-0.7-1.3-0.4-2.9,0.7-3.9
			c0.6-0.6,1.4-0.9,2.2-0.9c1,0,1.9,0.4,2.5,1.2c1.7,2,4.7,5.9,7.1,10.5c4.1-6.6,16.2-26.1,22.5-33.6c0.6-0.7,1.4-1,2.2-1
			c0.5,0,1,0.1,1.5,0.4l0,0c0.7,0.4,1.1,1,1.3,1.8c0.2,0.7,0.1,1.5-0.3,2.2c-3.3,5.8-20,35.4-24.4,44.8
			C48.9,80.4,47.7,81.2,46.4,81.2z"/>
		<g id="XMLID_1_">
			<path id="XMLID_12_" class="st2" d="M33,58.4c-1-1.9-0.6-4.2,1-5.6c0.9-0.8,2-1.2,3.2-1.2c1.4,0,2.7,0.6,3.6,1.7
				c1.5,1.7,3.9,4.8,6,8.5c1.8-3,4.5-7.2,7.3-11.6c1.5-2.3,2.9-4.4,4.2-6.3c0-0.1-0.1-0.2-0.1-0.3c-0.7-2-1.6-3.9-3-5.6
				c-2-2.4-4.4-4-7.5-4.5c-0.7-0.1-1.5-0.1-2.3-0.2c-0.2,0-0.3,0-0.4,0.2c-1.5,1.2-3.1,2.3-4.8,3.2c-2,1.1-4,1.8-6.3,2.1
				C32,39.1,30,39.2,28,39c-3.5-0.3-6.7-1.4-9.6-3.4c-1-0.7-2-1.5-2.9-2.4c-0.1-0.1-0.2-0.1-0.3-0.1c-2.2,0-4.3,0.5-6.2,1.6
				c-2.1,1.2-3.7,2.8-4.9,4.9c-1.4,2.4-2.2,5-2.9,7.6c-0.6,2.6-1,5.2-1.1,7.9c0,0.8-0.1,1.5-0.1,2.3c0,0.1,0,0.2,0,0.2
				c0,1,0,2,0,2.9c0.1,0.5,0.1,1.1,0.2,1.6c0.5,3.1,1.9,5.7,4.3,7.8c1.4,1.2,2.9,1.9,4.8,2.1c0.1,0,0.1,0,0.2,0c9.9,0,19.9,0,29.8,0
				C37.9,68.6,35.9,64,33,58.4z"/>
			<path id="XMLID_13_" class="st2" d="M55.8,70.2c0.4-0.3,0.7-0.6,1.1-1c2-2.1,3.1-4.5,3.5-7.4c0,0,0,0,0-0.1
				C58.7,64.7,57.2,67.6,55.8,70.2z"/>
		</g>
	</g>
</g>
</svg>
