<?xml version="1.0" encoding="utf-8"?>
<!-- Generator: Adobe Illustrator 24.0.1, SVG Export Plug-In . SVG Version: 6.00 Build 0)  -->
<svg version="1.1" id="Capa_1" xmlns="http://www.w3.org/2000/svg" xmlns:xlink="http://www.w3.org/1999/xlink" x="0px" y="0px"
	 viewBox="0 0 80 80" style="enable-background:new 0 0 80 80;" xml:space="preserve">
<style type="text/css">
	.st0{fill:none;}
	.st1{fill:#1875EF;}
</style>
<g>
	<g>
		<g>
			<path d="M57.8,39.8c-1.1,0-1.9,0.9-1.9,1.9v19.4c0,1.1-0.9,1.9-1.9,1.9H18.9c-1.1,0-1.9-0.9-1.9-1.9V24.8c0-1.1,0.9-1.9,1.9-1.9
				h23.3c1.1,0,1.9-0.9,1.9-1.9s-0.9-1.9-1.9-1.9H18.9c-3.3,0-5.8,2.6-5.8,5.8v36.3c0,3.3,2.6,5.8,5.8,5.8h35c3.3,0,5.8-2.6,5.8-5.8
				V41.7C59.7,40.7,58.9,39.8,57.8,39.8z"/>
		</g>
	</g>
	<g>
		<path class="st0" d="M59.1,17.1c1.4-1.4,3.6-1.4,5,0c0.6,0.6,1,1.5,1,2.4c-0.1-0.9-0.5-1.7-1-2.4C62.7,15.7,60.5,15.7,59.1,17.1
			l-3.1,3l0,0L59.1,17.1z"/>
		<polygon class="st0" points="33.9,42.4 31.3,49.9 38.9,47.4 58.6,27.7 53.5,22.8 		"/>
		<path class="st1" d="M58.1,18l-3.7,3.7l6.1,5.8l3.6-3.6c0.8-0.8,1.2-1.8,1.2-3c0-0.1,0-0.1,0-0.2c-0.1-1.1-0.5-2-1.2-2.8
			C62.4,16.3,59.8,16.3,58.1,18z"/>
		<path d="M66.3,15.8c-1.4-1.4-3.3-2.2-5.3-2.2s-3.9,0.8-5.3,2.2L30.2,41.4c-0.2,0.2-0.4,0.5-0.5,0.7l-3.9,11.7
			c-0.4,1,0.2,2.1,1.3,2.4c0.2,0.1,0.4,0.1,0.6,0.1s0.5,0,0.6-0.1L40,52.3c0.3-0.1,0.5-0.3,0.7-0.5l25.5-25.6
			C69.2,23.5,69.2,18.7,66.3,15.8z M58.5,18.6c1.4-1.4,3.6-1.4,5,0c0.6,0.6,1,1.5,1,2.4c0,0.1,0,0.1,0,0.2c0,0.9-0.4,1.8-1,2.5l-3,3
			l-5.2-4.9l0,0L58.5,18.6z M38.3,48.9l-7.5,2.5l2.5-7.5l19.6-19.6l5.2,4.9L38.3,48.9z"/>
	</g>
</g>
</svg>
