<?xml version="1.0" encoding="utf-8"?>
<!-- Generator: Adobe Illustrator 24.0.1, SVG Export Plug-In . SVG Version: 6.00 Build 0)  -->
<svg version="1.1" id="Camada_1" xmlns="http://www.w3.org/2000/svg" xmlns:xlink="http://www.w3.org/1999/xlink" x="0px" y="0px"
	 viewBox="0 0 46.2 76.6" style="enable-background:new 0 0 46.2 76.6;" xml:space="preserve">
<style type="text/css">
	.st0{fill:#FFFFFF;}
	.st1{display:none;}
	.st2{display:inline;}
</style>
<g id="Layer_1">
	<g id="XMLID_7_">
		<g id="XMLID_3_">
			<path id="XMLID_4_" class="st0" d="M46.2,49.9c0,3.5-0.9,6.7-2.7,9.5c-1.8,2.8-4.5,5-7.9,6.6c-3.4,1.6-7.7,2.3-12.5,2.3
				c-5.7,0-10.5-1.1-14.2-3.2c-2.6-1.6-4.8-3.6-6.4-6.2C0.8,56.3,0,53.8,0,51.3c0-1.4,0.5-2.6,1.5-3.7c1-1,2.3-1.5,3.8-1.5
				c1.2,0,2.3,0.4,3.1,1.2c0.9,0.8,1.6,2,2.2,3.5c0.7,1.8,1.5,3.4,2.4,4.6s2.1,2.3,3.6,3.1c1.6,0.8,3.6,1.2,6.1,1.2
				c3.5,0,6.3-0.8,8.5-2.4s3.3-3.7,3.3-6.1c0-1.9-0.6-3.5-1.8-4.7c-1.2-1.2-2.7-2.1-4.6-2.8c-1.9-0.6-4.4-1.3-7.5-2
				c-4.2-1-7.7-2.1-10.5-3.4s-5-3.1-6.7-5.3c-1.7-2.3-2.5-5.1-2.5-8.4c0-3.2,0.9-6,2.6-8.5c1.7-2.5,4.3-4.4,7.6-5.7
				c3.3-1.3,7.2-2,11.6-2c3.6,0,6.6,0.4,9.3,1.3c2.6,0.9,4.8,2.1,6.5,3.5c1.7,1.5,3,3,3.8,4.6s1.2,3.2,1.2,4.7
				c0,1.4-0.5,2.7-1.5,3.8S39.8,28,38.3,28c-1.3,0-2.4-0.3-3.1-1s-1.5-1.8-2.3-3.3c-1.1-2.2-2.3-3.9-3.8-5.1s-3.9-1.8-7.1-1.8
				c-3,0-5.5,0.7-7.3,2c-1.9,1.3-2.8,2.9-2.8,4.8c0,1.2,0.3,2.2,1,3c0.6,0.8,1.5,1.6,2.6,2.2c1.1,0.6,2.2,1.1,3.4,1.4
				c1.1,0.3,3,0.8,5.6,1.5c3.3,0.8,6.2,1.6,8.9,2.5c2.7,0.9,4.9,2,6.8,3.4c1.9,1.3,3.3,3,4.4,5C45.7,44.5,46.2,47,46.2,49.9z"/>
		</g>
		<path id="XMLID_2_" class="st0" d="M23.1,76.6L23.1,76.6c-2.2,0-4.1-1.8-4.1-4.1V4.1C19,1.9,20.8,0,23.1,0l0,0
			c2.2,0,4.1,1.8,4.1,4.1v68.4C27.2,74.7,25.3,76.6,23.1,76.6z"/>
	</g>
</g>
<g id="Layer_2" class="st1">
	<g id="XMLID_6_" class="st2">
		<path id="XMLID_25_" class="st0" d="M17.2-2.2c0.4,0,0.9,0.1,1.3,0.1c2.8,0.3,5.4,1.3,7.7,2.9c2.5,1.7,4.4,3.8,5.9,6.4
			c1,1.7,1.6,3.5,1.9,5.4c0.4,2.8,0.3,5.5-0.5,8.3c-0.6,2-1.5,3.9-2.8,5.5c-1.6,2.1-3.6,3.8-5.9,5.1c-1.8,1-3.7,1.6-5.7,1.9
			c-3,0.4-6,0.3-8.9-0.7c-2.5-0.8-4.7-2.2-6.6-4.1C1.4,26.5-0.3,24-1.2,21c-0.7-2.3-0.9-4.6-0.7-6.9c0.2-2.1,0.6-4.1,1.5-6
			c0.9-2,2.2-3.7,3.7-5.3C5,1.2,6.9-0.2,9-1.1c1.8-0.8,3.7-1.2,5.7-1.3c0.1,0,0.2,0,0.4,0C15.8-2.2,16.5-2.2,17.2-2.2z"/>
		<path id="XMLID_10_" class="st0" d="M32.3,78.8c-1.6,0-2.9-1-3.3-2.5c-0.7-2.7-3.1-10.1-8.8-20.9c-0.7-1.3-0.4-2.9,0.7-3.9
			c0.6-0.6,1.4-0.9,2.2-0.9c1,0,1.9,0.4,2.5,1.2c1.7,2,4.7,5.9,7.1,10.5c4.1-6.6,16.2-26.1,22.5-33.6c0.6-0.7,1.4-1,2.2-1
			c0.5,0,1,0.1,1.5,0.4l0,0c0.7,0.4,1.1,1,1.3,1.8c0.2,0.7,0.1,1.5-0.3,2.2c-3.3,5.8-20,35.4-24.4,44.8C34.8,78,33.6,78.8,32.3,78.8
			z"/>
		<g id="XMLID_1_">
			<path id="XMLID_12_" class="st0" d="M18.9,56c-1-1.9-0.6-4.2,1-5.6c0.9-0.8,2-1.2,3.2-1.2c1.4,0,2.7,0.6,3.6,1.7
				c1.5,1.7,3.9,4.8,6,8.5c1.8-3,4.5-7.2,7.3-11.6c1.5-2.3,2.9-4.4,4.2-6.3c0-0.1-0.1-0.2-0.1-0.3c-0.7-2-1.6-3.9-3-5.6
				c-2-2.4-4.4-4-7.5-4.5c-0.7-0.1-1.5-0.1-2.3-0.2c-0.2,0-0.3,0-0.4,0.2c-1.5,1.2-3.1,2.3-4.8,3.2c-2,1.1-4,1.8-6.3,2.1
				c-1.9,0.3-3.9,0.4-5.9,0.2c-3.5-0.3-6.7-1.4-9.6-3.4c-1-0.7-2-1.5-2.9-2.4c-0.1-0.1-0.2-0.1-0.3-0.1c-2.2,0-4.3,0.5-6.2,1.6
				c-2.1,1.2-3.7,2.8-4.9,4.9c-1.4,2.4-2.2,5-2.9,7.6c-0.6,2.6-1,5.2-1.1,7.9c0,0.8-0.1,1.5-0.1,2.3c0,0.1,0,0.2,0,0.2
				c0,1,0,2,0,2.9c0.1,0.5,0.1,1.1,0.2,1.6c0.5,3.1,1.9,5.7,4.3,7.8c1.4,1.2,2.9,1.9,4.8,2.1c0.1,0,0.1,0,0.2,0c9.9,0,19.9,0,29.8,0
				C23.8,66.2,21.8,61.6,18.9,56z"/>
			<path id="XMLID_13_" class="st0" d="M41.7,67.8c0.4-0.3,0.7-0.6,1.1-1c2-2.1,3.1-4.5,3.5-7.4c0,0,0,0,0-0.1
				C44.6,62.3,43.1,65.2,41.7,67.8z"/>
		</g>
	</g>
</g>
</svg>
