<?xml version="1.0" encoding="utf-8"?>
<!-- Generator: Adobe Illustrator 24.0.1, SVG Export Plug-In . SVG Version: 6.00 Build 0)  -->
<svg version="1.1" id="Camada_1" xmlns="http://www.w3.org/2000/svg" xmlns:xlink="http://www.w3.org/1999/xlink" x="0px" y="0px"
	 viewBox="0 0 252.3 438.7" style="enable-background:new 0 0 252.3 438.7;" xml:space="preserve">
<g id="Back">
</g>
<g id="Vetor">
	<path d="M83.4,224.8c21,21.6,41.8,43,62.5,64.4c34.9,36,69.8,71.9,104.6,108c5.4,5.6,5.5,11.6,0.2,17.1
		c-8.8,9.3-17.7,18.6-26.6,27.8c-7.8,8-13,8.2-20.6,0.3c-36.4-37.5-72.7-75.1-109-112.6c-27.6-28.4-55.2-56.8-82.8-85.2
		c-3.1-3.2-5.8-7-9.3-9.7c-6.4-5.1-6.1-13.5,0.2-20c12.5-12.7,24.7-25.7,37-38.6c45.1-47.5,90.2-95.1,135.3-142.7
		c9.2-9.7,18.3-19.3,27.6-28.9c6-6.2,11.7-6.3,17.8-0.4c9.7,9.6,19.3,19.3,28.7,29.1c5.5,5.7,5.1,11.7-0.9,17.9
		c-16.3,17.1-32.6,34.3-48.9,51.4c-32.6,34.3-65.2,68.5-97.7,102.8C95.5,211.9,89.6,218.2,83.4,224.8z"/>
</g>
</svg>
