<?xml version="1.0" encoding="utf-8"?>
<!-- Generator: Adobe Illustrator 24.0.1, SVG Export Plug-In . SVG Version: 6.00 Build 0)  -->
<svg version="1.1" id="Camada_1" xmlns="http://www.w3.org/2000/svg" xmlns:xlink="http://www.w3.org/1999/xlink" x="0px" y="0px"
	 viewBox="0 0 448.2 256.1" style="enable-background:new 0 0 448.2 256.1;" xml:space="preserve">
<style type="text/css">
	.st0{fill:#1833FE;}
</style>
<g id="Back">
</g>
<g id="Vetor">
	<path class="st0" d="M224.1,170.4c21.8-20.9,43.2-41.5,64.7-62.2c36.2-34.7,72.3-69.4,108.5-104c5.7-5.4,11.6-5.4,17.2-0.1
		c9.3,8.9,18.5,17.8,27.6,26.7c8,7.8,8.1,13,0.2,20.6c-37.7,36.2-75.5,72.3-113.2,108.4c-28.6,27.4-57.1,54.9-85.7,82.3
		c-3.2,3.1-7,5.8-9.8,9.3c-5.2,6.4-13.6,6-20-0.3c-12.6-12.5-25.5-24.8-38.4-37.2c-47.3-45.4-94.6-90.7-141.9-136.1
		c-9.6-9.2-19.2-18.4-28.7-27.8c-6.1-6-6.3-11.8-0.3-17.8c9.7-9.6,19.4-19.2,29.3-28.6c5.7-5.5,11.7-5,17.9,1
		c17,16.4,34.1,32.8,51.1,49.1c34.1,32.8,68.1,65.5,102.2,98.3C211.2,158.3,217.6,164.2,224.1,170.4z"/>
</g>
</svg>
