<?xml version="1.0" encoding="utf-8"?>
<!-- Generator: Adobe Illustrator 24.0.1, SVG Export Plug-In . SVG Version: 6.00 Build 0)  -->
<svg version="1.1" id="Camada_1" xmlns="http://www.w3.org/2000/svg" xmlns:xlink="http://www.w3.org/1999/xlink" x="0px" y="0px"
	 viewBox="0 0 17 12" style="enable-background:new 0 0 17 12;" xml:space="preserve">
<style type="text/css">
	.st0{fill:none;}
	.st1{fill:#FFFFFF;}
</style>
<path class="st0" d="M-15.5-18h48v48h-48V-18z"/>
<path class="st1" d="M10.7,5.9c1.6,0,3-1.3,3-2.9s-1.3-2.9-2.9-2.9s-3,1.1-3,2.9S9.1,5.9,10.7,5.9z M10.7,1.6c0.8,0,1.5,0.7,1.5,1.5
	s-0.7,1.5-1.5,1.5c-0.8,0-1.5-0.7-1.5-1.5S9.9,1.6,10.7,1.6z M10.7,7.4c-1.9,0-5.8,1-5.8,2.9v1.5h11.7v-1.5
	C16.5,8.3,12.6,7.4,10.7,7.4z M6.3,10.3c0.1-0.6,2.4-1.5,4.3-1.5s4.2,0.9,4.3,1.5H6.3z M4.2,8.1V5.9h2.2V4.5H4.2V2.3H2.7v2.2H0.5
	v1.5h2.2v2.2H4.2z"/>
</svg>
