<?xml version="1.0" encoding="utf-8"?>
<!-- Generator: Adobe Illustrator 24.0.1, SVG Export Plug-In . SVG Version: 6.00 Build 0)  -->
<svg version="1.1" id="Camada_1" xmlns="http://www.w3.org/2000/svg" xmlns:xlink="http://www.w3.org/1999/xlink" x="0px" y="0px"
	 viewBox="0 0 35 35" style="enable-background:new 0 0 35 35;" xml:space="preserve">
<style type="text/css">
	.st0{fill:#1875EF;}
	.st1{fill:none;stroke:#D0D0D0;stroke-miterlimit:10;}
</style>
<path class="st0" d="M23.9,11.9h-6.4h-1.6h-4.7c-0.9,0-1.7,0.6-1.7,1.5v8.1c0,0.9,0.7,1.6,1.6,1.6h12.8c0.9,0,1.6-0.7,1.6-1.6v-8
	C25.5,12.5,24.8,11.9,23.9,11.9z M23.9,21.5H11.1v-8h4.2h1.6h7C23.9,13.5,23.9,21.5,23.9,21.5z M20,17.4c0.9,0,1.6-0.7,1.6-1.6
	c0-0.9-0.7-1.6-1.6-1.6s-1.6,0.7-1.6,1.6C18.4,16.7,19,17.4,20,17.4z M16.8,20.6h6.4v-0.9c0-1.1-2.1-1.6-3.2-1.6s-3.2,0.5-3.2,1.6
	V20.6z"/>
<circle class="st1" cx="17.5" cy="17.5" r="16"/>
</svg>
