<?xml version="1.0" encoding="utf-8"?>
<!-- Generator: Adobe Illustrator 24.0.1, SVG Export Plug-In . SVG Version: 6.00 Build 0)  -->
<svg version="1.1" id="Camada_1" xmlns="http://www.w3.org/2000/svg" xmlns:xlink="http://www.w3.org/1999/xlink" x="0px" y="0px"
	 viewBox="0 0 266.6 448.2" style="enable-background:new 0 0 266.6 448.2;" xml:space="preserve">
<style type="text/css">
	.st0{fill:#1875EF;}
</style>
<g id="Back">
</g>
<g id="Vetor">
	<path class="st0" d="M170.3,224.1c-20.9-21.8-41.6-43.2-62.2-64.7C73.5,123.2,38.8,87.1,4.1,50.9C-1.3,45.2-1.3,39.2,4,33.7
		c8.9-9.3,17.8-18.5,26.7-27.7c7.8-8,13-8.1,20.6-0.2C87.5,43.5,123.6,81.3,159.8,119c27.4,28.6,54.9,57.1,82.4,85.7
		c3.1,3.2,5.8,7,9.3,9.8c6.4,5.2,6,13.6-0.3,20c-12.5,12.7-24.8,25.6-37.2,38.4c-45.4,47.3-90.7,94.7-136,142
		c-9.2,9.6-18.4,19.2-27.8,28.8c-6,6.1-11.8,6.3-17.8,0.3c-9.6-9.7-19.2-19.4-28.6-29.3c-5.5-5.7-5-11.7,1-17.9
		c16.4-17.1,32.8-34.1,49.1-51.1c32.8-34.1,65.5-68.2,98.3-102.3C158.2,237,164.1,230.6,170.3,224.1z"/>
</g>
</svg>
