<?xml version="1.0" encoding="utf-8"?>
<!-- Generator: Adobe Illustrator 24.0.1, SVG Export Plug-In . SVG Version: 6.00 Build 0)  -->
<svg version="1.1" xmlns="http://www.w3.org/2000/svg" xmlns:xlink="http://www.w3.org/1999/xlink" x="0px" y="0px"
	 viewBox="0 0 536 538.4" style="enable-background:new 0 0 536 538.4;" xml:space="preserve">
<style type="text/css">
	.st0{fill:none;}
	.st1{fill:#1875EF;}
</style>
<g id="Back">
</g>
<g id="Layer_1">
	<g>
		<g>
			<path d="M313,74.9c-5.4-1.3-10.8,2-12.1,7.4c-1.3,5.4,2,10.8,7.4,12.1c81,19.5,137.7,91.5,137.7,175c0,99.3-80.7,180-180,180
				s-180-80.7-180-180c0-83.5,56.6-155.4,137.7-175c5.4-1.3,8.7-6.7,7.4-12.1c-1.3-5.4-6.7-8.7-12.1-7.4
				c-42.9,10.3-81.7,35.1-109.4,69.8C81.1,180.5,66,223.6,66,269.4c0,110.3,89.7,200,200,200s200-89.7,200-200
				c0-45.8-15.1-88.9-43.6-124.6C394.8,110.1,355.9,85.3,313,74.9L313,74.9z"/>
			<path d="M516,245.3l-11.7-21.8l2-27c1.9-17.3-5-34.2-18.5-45.2l-19.4-15.9l-7.6-23c-4.3-17.6-17.6-31.7-35-37l-24-7.2L383.4,47
				c-10.9-12.8-27.3-19.4-44-17.8l-24.9,2.5l-24.5-12.3c-15.1-8-33-8-48.1,0l-21.8,11.7l-27-2c-17.3-1.9-34.2,5-45.2,18.5L132.1,67
				l-23,7.6c-17.6,4.3-31.7,17.6-37,35l-7.2,24L43.6,152c-12.8,10.9-19.4,27.3-17.8,44l2.5,24.9L16,245.3c-8,15.1-8,33,0,48.1
				l11.7,21.8l-2,27c-1.9,17.3,5,34.2,18.5,45.2l19.4,15.9l7.6,23c4.3,17.6,17.6,31.7,35,37l24,7.2l18.4,21.2
				c10.9,12.8,27.3,19.4,44,17.8l24.9-2.5l24.5,12.3c7.5,4,15.8,6,24.1,6c8.3,0,16.5-2,24.1-6l21.8-11.7l27,2
				c17.3,1.9,34.2-5,45.2-18.5l15.9-19.4l23-7.6c17.6-4.3,31.7-17.6,37-35l7.2-24l21.2-18.4c12.8-10.9,19.4-27.3,17.8-44l-2.5-24.9
				l12.3-24.5C524,278.4,524,260.4,516,245.3L516,245.3z M498.3,284.1c0,0.1-0.1,0.2-0.1,0.2l-13.6,27.2c-0.8,1.7-1.2,3.6-1,5.5
				l2.8,27.8c1,10.1-3.1,20.2-10.9,26.8l-23.5,20.3c-1.4,1.2-2.5,2.9-3,4.7l-8.1,26.7c-3.2,10.7-12,18.9-22.8,21.4
				c-0.3,0.1-0.6,0.2-0.9,0.2l-26.2,8.7c-1.8,0.6-3.4,1.7-4.6,3.2l-17.7,21.7c-6.7,8.2-17.1,12.4-27.7,11.2c-0.1,0-0.3,0-0.4,0
				l-30.1-2.2c-1.9-0.1-3.8,0.3-5.4,1.2l-24.4,13.1c-9.2,4.9-20.2,4.9-29.4-0.1c-0.1,0-0.2-0.1-0.2-0.1l-27.2-13.6
				c-1.4-0.7-2.9-1.1-4.5-1.1c-0.3,0-0.7,0-1,0l-27.8,2.8c-10.1,1-20.2-3.1-26.8-10.9l-20.3-23.5c-1.2-1.4-2.9-2.5-4.7-3l-26.7-8.1
				c-10.7-3.2-18.9-12-21.4-22.8c-0.1-0.3-0.2-0.6-0.2-0.9l-8.7-26.2c-0.6-1.8-1.7-3.4-3.2-4.6l-21.7-17.7
				c-8.2-6.7-12.4-17.1-11.2-27.7c0-0.1,0-0.3,0-0.4l2.2-30.1c0.1-1.9-0.3-3.8-1.2-5.4L33.7,284c-4.9-9.2-4.9-20.2,0.1-29.4
				c0-0.1,0.1-0.2,0.1-0.2l13.6-27.2c0.8-1.7,1.2-3.6,1-5.5L45.7,194c-1-10.1,3.1-20.2,10.9-26.8l23.5-20.3c1.4-1.2,2.5-2.9,3-4.7
				l8.1-26.7c3.2-10.7,12-18.9,22.8-21.4c0.3-0.1,0.6-0.2,0.9-0.2l26.2-8.7c1.8-0.6,3.4-1.7,4.6-3.2l17.7-21.7
				c6.7-8.2,17.1-12.4,27.7-11.2c0.1,0,0.3,0,0.4,0l30.1,2.2c1.9,0.1,3.8-0.3,5.4-1.2L251.4,37c9.2-4.9,20.2-4.9,29.4,0.1
				c0.1,0,0.2,0.1,0.2,0.1l27.2,13.6c1.7,0.8,3.6,1.2,5.5,1l27.8-2.8c10.1-1,20.2,3.1,26.8,10.9l20.3,23.5c1.2,1.4,2.9,2.5,4.7,3
				l26.7,8.1c10.7,3.2,18.9,12,21.4,22.8c0.1,0.3,0.2,0.6,0.2,0.9l8.7,26.2c0.6,1.8,1.7,3.4,3.2,4.6l21.7,17.7
				c8.2,6.7,12.4,17.1,11.2,27.7c0,0.1,0,0.3,0,0.4l-2.2,30.1c-0.1,1.9,0.3,3.8,1.2,5.4l13.1,24.4
				C503.2,263.9,503.2,274.9,498.3,284.1L498.3,284.1z"/>
			<g>
				<polygon class="st0" points="333.8,184.5 305,184.5 305,184.5 333.8,184.5 				"/>
				<path class="st0" d="M198.1,184.5C198.1,184.5,198.1,184.5,198.1,184.5H227H198.1z"/>
				<path class="st1" d="M230.6,184.5l-33.2,0c-0.2,0.3-0.3,0.6-0.5,0.8L156.3,243h56.8L230.6,184.5z"/>
				<polygon class="st1" points="285.3,184.5 246.7,184.5 230.6,243 301.4,243 				"/>
				<polygon class="st1" points="301.4,184.5 318.9,243 375.7,243 334.5,184.5 				"/>
				<polygon class="st1" points="164.5,258.5 243.5,348.4 212.3,258.5 				"/>
				<polygon class="st1" points="233.4,258.5 266,352.2 298.6,258.5 				"/>
				<path class="st1" d="M288.2,349.2c17.2-19.4,34.4-39.1,51.1-58.3c9.2-10.6,18.7-21.5,28.2-32.3h-47.8L288.2,349.2z"/>
				<path d="M392.1,236.3l-41.6-62.9c-3.7-5.6-9.8-8.9-16.4-9H197.9c-7,0-13.6,3.8-17.1,10.1l-41.3,62.5c-5.2,7.8-4.5,18.2,1.7,25.1
					l110.2,125.3c3.7,4.2,9.1,6.7,14.7,6.7h0c5.6,0,10.9-2.4,14.7-6.6c24.8-27.4,49.7-56,73.7-83.6c12-13.7,24.3-28,36.5-41.8
					C397.3,255,397.8,244.1,392.1,236.3z M247.8,184.5h36.4l15.2,54h-66.8L247.8,184.5z M197.7,185.3c0.2-0.2,0.3-0.5,0.5-0.8
					c0,0,0,0,0,0H227l-15.2,54h-49.4L197.7,185.3z M164.5,258.5h47.8l31.2,89.9L164.5,258.5z M266,352.2l-32.6-93.6h65.1L266,352.2z
					 M339.3,290.9c-16.7,19.2-33.9,38.9-51.1,58.3l31.5-90.7h47.8C358,269.3,348.6,280.2,339.3,290.9z M320.2,238.5l-15.2-54v0h28.8
					l0,0l35.7,54H320.2z"/>
			</g>
		</g>
	</g>
</g>
</svg>
