<?xml version="1.0" encoding="utf-8"?>
<!-- Generator: Adobe Illustrator 24.0.1, SVG Export Plug-In . SVG Version: 6.00 Build 0)  -->
<svg version="1.1" id="Camada_1" xmlns="http://www.w3.org/2000/svg" xmlns:xlink="http://www.w3.org/1999/xlink" x="0px" y="0px"
	 viewBox="0 0 35 35" style="enable-background:new 0 0 35 35;" xml:space="preserve">
<style type="text/css">
	.st0{fill:none;stroke:#D0D0D0;stroke-miterlimit:10;}
	.st1{fill:#1875EF;}
</style>
<circle class="st0" cx="17.5" cy="17.5" r="16"/>
<path class="st1" d="M22.2,12.2h-0.7v-0.7c0-0.4-0.3-0.7-0.7-0.7c-0.4,0-0.7,0.3-0.7,0.7v0.7h-5.3v-0.7c0-0.4-0.3-0.7-0.7-0.7
	s-0.7,0.3-0.7,0.7v0.7h-0.7c-0.7,0-1.3,0.6-1.3,1.3l0,9.3c0,0.7,0.6,1.3,1.3,1.3h9.3c0.7,0,1.3-0.6,1.3-1.3v-9.3
	C23.5,12.8,22.9,12.2,22.2,12.2z M21.5,22.8h-8c-0.4,0-0.7-0.3-0.7-0.7v-6.7h9.3v6.7C22.2,22.5,21.9,22.8,21.5,22.8z M14.8,16.8h2
	c0.4,0,0.7,0.3,0.7,0.7v2c0,0.4-0.3,0.7-0.7,0.7h-2c-0.4,0-0.7-0.3-0.7-0.7v-2C14.2,17.1,14.5,16.8,14.8,16.8z"/>
</svg>
