<?xml version="1.0" encoding="utf-8"?>
<!-- Generator: Adobe Illustrator 24.0.1, SVG Export Plug-In . SVG Version: 6.00 Build 0)  -->
<svg version="1.1" id="Camada_1" xmlns="http://www.w3.org/2000/svg" xmlns:xlink="http://www.w3.org/1999/xlink" x="0px" y="0px"
	 viewBox="0 0 34.9 34.7" style="enable-background:new 0 0 34.9 34.7;" xml:space="preserve">
<style type="text/css">
	.st0{fill:none;stroke:#D0D0D0;stroke-miterlimit:10;}
	.st1{fill:#1875EF;}
</style>
<circle class="st0" cx="17.4" cy="17.4" r="16"/>
<path class="st1" d="M17.4,11.7c1,0,1.9,0.8,1.9,1.9c0,1-0.8,1.9-1.9,1.9s-1.9-0.8-1.9-1.9S16.4,11.7,17.4,11.7 M17.4,20.2
	c2.5,0,5.4,1.2,5.6,1.9V23H11.8V22C12,21.4,14.9,20.2,17.4,20.2 M17.4,9.9c-2.1,0-3.8,1.7-3.8,3.8s1.7,3.8,3.8,3.8s3.8-1.7,3.8-3.8
	S19.5,9.9,17.4,9.9z M17.4,18.3c-2.5,0-7.5,1.3-7.5,3.8v2.8h15V22C24.9,19.6,19.9,18.3,17.4,18.3z"/>
</svg>
