<?xml version="1.0" encoding="utf-8"?>
<!-- Generator: Adobe Illustrator 24.0.1, SVG Export Plug-In . SVG Version: 6.00 Build 0)  -->
<svg version="1.1" id="Camada_1" xmlns="http://www.w3.org/2000/svg" xmlns:xlink="http://www.w3.org/1999/xlink" x="0px" y="0px"
	 viewBox="0 0 35 35" style="enable-background:new 0 0 35 35;" xml:space="preserve">
<style type="text/css">
	.st0{fill:none;stroke:#D0D0D0;stroke-miterlimit:10;}
	.st1{fill:#1875EF;}
</style>
<circle class="st0" cx="17.5" cy="17.5" r="16"/>
<path class="st1" d="M24.8,15l-2.4-3.6c-0.2-0.3-0.6-0.5-0.9-0.5h-7.9c-0.4,0-0.8,0.2-1,0.6l-2.4,3.6c-0.3,0.4-0.3,1,0.1,1.4
	l6.4,7.2c0.2,0.2,0.5,0.4,0.8,0.4l0,0c0.3,0,0.6-0.1,0.8-0.4c1.4-1.6,2.9-3.2,4.3-4.8c0.7-0.8,1.4-1.6,2.1-2.4
	C25.1,16.1,25.1,15.5,24.8,15z M16.4,12h2.1l0.9,3.1h-3.9L16.4,12z M13.6,12.1C13.6,12.1,13.6,12.1,13.6,12.1L13.6,12.1l1.7,0
	l-0.9,3.1h-2.8L13.6,12.1z M11.6,16.3h2.8l1.8,5.2L11.6,16.3z M17.5,21.7l-1.9-5.4h3.8L17.5,21.7z M21.7,18.2c-1,1.1-2,2.2-2.9,3.4
	l1.8-5.2h2.8C22.8,16.9,22.3,17.6,21.7,18.2z M20.6,15.1L19.7,12l0,0h1.7l0,0l2.1,3.1H20.6z"/>
</svg>
