<?xml version="1.0" encoding="utf-8"?>
<!-- Generator: Adobe Illustrator 24.0.1, SVG Export Plug-In . SVG Version: 6.00 Build 0)  -->
<svg version="1.1" id="Camada_1" xmlns="http://www.w3.org/2000/svg" xmlns:xlink="http://www.w3.org/1999/xlink" x="0px" y="0px"
	 viewBox="0 0 34.7 34.9" style="enable-background:new 0 0 34.7 34.9;" xml:space="preserve">
<style type="text/css">
	.st0{fill:none;stroke:#D0D0D0;stroke-miterlimit:10;}
	.st1{fill:#1875EF;}
</style>
<circle class="st0" cx="17.4" cy="17.5" r="16"/>
<path class="st1" d="M13.4,12.4c0,0.7,0.2,1.3,0.3,1.9l-0.9,0.9c-0.3-0.9-0.4-1.7-0.5-2.8H13.4 M20.6,21.1c0.6,0.2,1.2,0.3,1.9,0.3
	v1.1c-1-0.1-1.9-0.3-2.8-0.6L20.6,21.1 M14.1,11h-2.5c-0.4,0-0.7,0.3-0.7,0.7c0,6.8,5.5,12.4,12.3,12.4c0.4,0,0.7-0.3,0.7-0.7v-2.5
	c0-0.4-0.3-0.7-0.7-0.7c-0.9,0-1.7-0.2-2.6-0.4c-0.1,0-0.2,0-0.3,0c-0.2,0-0.3,0.1-0.5,0.3l-1.5,1.5c-2.1-1-3.8-2.7-4.8-4.8l1.6-1.6
	c0.3-0.3,0.3-0.4,0.2-0.7c-0.3-0.9-0.4-1.7-0.4-2.6C14.8,11.2,14.6,11,14.1,11z"/>
</svg>
